<svg width="672" height="24" viewBox="0 0 672 24" fill="none" xmlns="http://www.w3.org/2000/svg">
<g clip-path="url(#clip0_11383_147386)">
<path fill-rule="evenodd" clip-rule="evenodd" d="M518.089 2.03755C517.639 2.00078 517.057 2 516.2 2H514C512.895 2 512 2.89543 512 4C512 4.72858 511.805 5.41165 511.465 6H514.5C515.052 6 515.5 6.44772 515.5 7C515.5 7.55229 515.052 8 514.5 8H508.004L508 8C506.895 8 506 8.89543 506 10V12.2649C506 13.1111 506.001 13.686 506.037 14.1306C506.072 14.5635 506.136 14.7856 506.214 14.9413C506.403 15.315 506.704 15.6202 507.075 15.8138C507.23 15.8944 507.451 15.9612 507.883 16.0023C508.327 16.0444 508.902 16.053 509.748 16.0645L510.001 16.068C510.004 15.564 510.013 15.1261 510.044 14.7482C510.09 14.1861 510.189 13.6694 510.436 13.184C510.819 12.4314 511.431 11.8195 512.184 11.436C512.669 11.1887 513.186 11.0901 513.748 11.0442C514.289 11 514.954 11 515.759 11H515.8H516.2C517.057 11 517.639 10.9992 518.089 10.9625C518.527 10.9266 518.752 10.8617 518.908 10.782C519.284 10.5903 519.59 10.2843 519.782 9.90798C519.862 9.75158 519.927 9.52738 519.962 9.08896C519.999 8.63887 520 8.05658 520 7.2V7V5.8C520 4.94342 519.999 4.36113 519.962 3.91104C519.927 3.47262 519.862 3.24842 519.782 3.09202C519.59 2.7157 519.284 2.40974 518.908 2.21799C518.752 2.1383 518.527 2.07337 518.089 2.03755ZM510 18.0681L509.721 18.0644L509.68 18.0638H509.68C508.885 18.053 508.229 18.0441 507.694 17.9933C507.139 17.9405 506.628 17.8366 506.15 17.5871C505.408 17.1999 504.806 16.5895 504.429 15.842C504.186 15.3603 504.089 14.8488 504.043 14.2926C504 13.7573 504 13.1008 504 12.3059L504 12.2649V10C504 7.79086 505.791 6 508 6C509.105 6 510 5.10457 510 4C510 1.79086 511.791 3.66666e-07 514 3.66666e-07H516.2H516.241H516.241C517.046 -1.10779e-05 517.711 -2.05228e-05 518.252 0.0441958C518.814 0.090121 519.331 0.188685 519.816 0.435976C520.569 0.81947 521.181 1.43139 521.564 2.18404C521.811 2.66938 521.91 3.18608 521.956 3.74818C522 4.28937 522 4.95372 522 5.75868V5.8V6H522.2H522.241H522.241C523.046 5.99999 523.711 5.99998 524.252 6.0442C524.814 6.09012 525.331 6.18869 525.816 6.43598C526.569 6.81947 527.181 7.43139 527.564 8.18404C527.811 8.66938 527.91 9.18608 527.956 9.74818C528 10.2894 528 10.9537 528 11.7587V11.8V14C528 16.2091 526.209 18 524 18C522.895 18 522 18.8954 522 20C522 22.2091 520.209 24 518 24H515.8H515.759C514.954 24 514.289 24 513.748 23.9558C513.186 23.9099 512.669 23.8113 512.184 23.564C511.431 23.1805 510.819 22.5686 510.436 21.816C510.189 21.3306 510.09 20.8139 510.044 20.2518C510 19.7106 510 19.0463 510 18.2413V18.2413V18.2V18.0681ZM521.998 8C521.995 8.47547 521.985 8.89102 521.956 9.25183C521.91 9.81393 521.811 10.3306 521.564 10.816C521.181 11.5686 520.569 12.1805 519.816 12.564C519.331 12.8113 518.814 12.9099 518.252 12.9558C517.711 13 517.046 13 516.241 13H516.2H515.8C514.943 13 514.361 13.0008 513.911 13.0376C513.473 13.0734 513.248 13.1383 513.092 13.218C512.716 13.4097 512.41 13.7157 512.218 14.092C512.138 14.2484 512.073 14.4726 512.038 14.911C512.001 15.3611 512 15.9434 512 16.8V17.0817V18.2C512 19.0566 512.001 19.6389 512.038 20.089C512.073 20.5274 512.138 20.7516 512.218 20.908C512.41 21.2843 512.716 21.5903 513.092 21.782C513.248 21.8617 513.473 21.9266 513.911 21.9625C514.361 21.9992 514.943 22 515.8 22H518C519.105 22 520 21.1046 520 20C520 19.2714 520.195 18.5883 520.535 18H518C517.448 18 517 17.5523 517 17C517 16.4477 517.448 16 518 16L524 16L524.003 16C525.106 15.9985 526 15.1036 526 14V11.8C526 10.9434 525.999 10.3611 525.962 9.91104C525.927 9.47263 525.862 9.24842 525.782 9.09202C525.59 8.7157 525.284 8.40974 524.908 8.21799C524.752 8.1383 524.527 8.07337 524.089 8.03755C523.639 8.00078 523.057 8 522.2 8H521.998ZM516.546 20.7272C515.943 20.7272 515.455 20.2391 515.455 19.6342C515.455 19.0334 515.943 18.5453 516.546 18.5453C517.148 18.5453 517.636 19.0334 517.636 19.6342C517.636 20.2391 517.148 20.7272 516.546 20.7272ZM514.364 4.36144C514.364 4.96634 514.852 5.45443 515.455 5.45443C516.057 5.45443 516.546 4.96634 516.546 4.36144C516.546 3.7607 516.057 3.27262 515.455 3.27262C514.852 3.27262 514.364 3.7607 514.364 4.36144Z" fill="#0055D9"/>
</g>
<path fill-rule="evenodd" clip-rule="evenodd" d="M589 2.73182C588.381 2.37456 587.619 2.37456 587 2.73182L580.474 6.49977V6.49977C580.081 6.72637 579.784 7.07483 579.62 7.48173C579.525 7.71638 579.474 7.97047 579.474 8.23182V8.23183V15.7677C579.474 16.0694 579.542 16.3613 579.667 16.6249L579.658 16.6314C579.825 16.9926 580.099 17.3019 580.453 17.5118L581.253 17.987C582.523 17.9586 582.812 17.7183 582.868 17.6543C582.891 17.6268 582.935 17.5626 582.965 17.3691C582.998 17.1563 583 16.8957 583 16.4998V8.99977C583 8.44748 583.448 7.99977 584 7.99977C584.552 7.99977 585 8.44748 585 8.99977V16.4998L585 16.5375C585 16.8838 585 17.2934 584.941 17.6742C584.878 18.0882 584.734 18.5527 584.382 18.9602C583.714 19.7361 582.591 19.9744 581.146 19.989C580.927 20.0216 580.695 19.9817 580.489 19.8596L579.432 19.2315C578.218 18.5108 577.474 17.2037 577.474 15.792V15.7677V8.23183V8.23182C577.474 6.80275 578.236 5.48225 579.474 4.76771L586 0.999766C587.238 0.285235 588.762 0.285234 590 0.999766L593.263 2.88374L593.267 2.88581L596.526 4.76772C597.764 5.48225 598.526 6.80276 598.526 8.23183V15.7677C598.526 17.1968 597.764 18.5173 596.526 19.2318L590 22.9998C588.762 23.7143 587.238 23.7143 586 22.9998L583.688 21.6647C584.376 21.4292 585.036 21.0486 585.601 20.4599L587 21.2677C587.619 21.625 588.381 21.625 589 21.2677L595.526 17.4998C596.145 17.1425 596.526 16.4823 596.526 15.7677V8.23183C596.526 7.51729 596.145 6.85704 595.526 6.49977L592.263 4.61579L589 2.73182ZM587 15.9998C587 16.5521 587.448 16.9998 588 16.9998H588.008H588.016H588.023H588.031H588.039H588.047H588.055H588.063H588.071H588.079H588.086H588.094H588.102H588.11H588.118H588.126H588.134H588.142H588.15H588.158H588.166H588.174H588.182H588.19H588.198H588.206H588.214H588.222H588.23H588.238H588.247H588.255H588.263H588.271H588.279H588.287H588.295H588.303H588.312H588.32H588.328H588.336H588.344H588.352H588.361H588.369H588.377H588.385H588.393H588.402H588.41H588.418H588.427H588.435H588.443H588.451H588.46H588.468H588.476H588.485H588.493H588.501H588.51H588.518H588.526H588.535H588.543H588.551H588.56H588.568H588.576H588.585H588.593H588.602H588.61H588.619H588.627H588.635H588.644H588.652H588.661H588.669H588.678H588.686H588.695H588.703H588.712H588.72H588.729H588.737H588.746H588.754H588.763H588.771H588.78H588.788H588.797H588.806H588.814H588.823H588.831H588.84H588.848H588.857H588.866H588.874H588.883H588.891H588.9H588.909H588.917H588.926H588.935H588.943H588.952H588.961H588.969H588.978H588.987H588.995H589.004H589.013H589.021H589.03H589.039H589.047H589.056H589.065H589.074H589.082H589.091H589.1H589.109H589.117H589.126H589.135H589.144H589.152H589.161H589.17H589.179H589.187H589.196H589.205H589.214H589.223H589.231H589.24H589.249H589.258H589.267H589.275H589.284H589.293H589.302H589.311H589.319H589.328H589.337H589.346H589.355H589.364H589.373H589.381H589.39H589.399H589.408H589.417H589.426H589.435H589.443H589.452H589.461H589.47H589.479H589.488H589.497H589.506H589.514H589.523H589.532H589.541H589.55H589.559H589.568H589.577H589.586H589.595H589.604H589.612H589.621H589.63H589.639H589.648H589.657H589.666H589.675H589.684H589.693H589.702H589.711H589.72H589.729H589.738H589.746H589.755H589.764H589.773H589.782H589.791H589.8H589.809H589.818H589.827H589.836H589.845H589.854H589.863H589.872H589.881H589.89H589.899H589.908H589.917H589.926H589.934H589.943H589.952H589.961H589.97H589.979H589.988H589.997H590.006H590.015H590.024H590.033H590.042H590.051H590.06H590.069H590.078H590.087H590.096H590.105H590.114H590.123H590.132H590.141H590.15H590.159H590.168H590.177H590.185H590.194H590.203H590.212H590.221H590.23H590.239H590.248H590.257H590.266H590.275H590.284H590.293H590.302H590.311H590.32H590.329H590.338H590.347H590.356H590.365H590.373H590.382H590.391H590.4H590.409H590.418H590.427H590.436H590.445H590.454H590.463H590.472H590.481H590.49H590.498H590.507H590.516H590.525H590.534H590.543H590.552H590.561H590.57H590.579H590.587H590.596H590.605H590.614H590.623H590.632H590.641H590.65H590.658H590.667H590.676H590.685H590.694H590.703H590.712H590.72H590.729H590.738H590.747H590.756H590.765H590.773H590.782H590.791H590.8H590.809H590.818H590.826H590.835H590.844H590.853H590.862H590.87H590.879H590.888H590.897H590.906H590.914H590.923H590.932H590.941H590.949H590.958H590.967H590.976H590.984H590.993H591.002H591.01H591.019H591.028H591.037H591.045H591.054H591.063H591.071H591.08H591.089H591.097H591.106H591.115H591.123H591.132H591.141H591.149H591.158H591.167H591.175H591.184H591.193H591.201H591.21H591.218H591.227H591.236H591.244H591.253H591.261H591.27H591.279H591.287H591.296H591.304H591.313H591.321H591.33H591.338H591.347H591.355H591.364H591.372H591.381H591.389H591.398H591.406H591.415H591.423H591.432H591.44H591.449H591.457H591.466H591.474H591.482H591.491H591.499H591.508H591.516H591.524H591.533H591.541H591.549H591.558H591.566H591.575H591.583H591.591H591.599H591.608H591.616H591.624H591.633H591.641H591.649H591.658H591.666H591.674H591.682H591.691H591.699H591.707H591.715H591.723H591.732H591.74H591.748H591.756H591.764H591.772H591.781H591.789H591.797H591.805H591.813H591.821H591.829H591.837H591.846H591.854H591.862H591.87H591.878H591.886H591.894H591.902H591.91H591.918H591.926H591.934H591.942H591.95H591.958H591.966H591.974H591.982H591.99H591.998H592.005H592.013H592.021H592.029H592.037H592.045H592.053H592.061H592.068H592.076H592.084H592.092H592.1H592.107H592.115H592.123H592.131H592.138H592.146H592.154H592.162H592.169H592.177H592.185H592.192H592.2H592.208H592.215H592.223H592.231H592.238H592.246H592.253H592.261H592.268H592.276H592.284H592.291H592.299H592.306H592.314H592.321H592.329H592.336H592.344H592.351H592.358C593.818 16.9998 595 15.8162 595 14.3574C595 13.0454 594.037 11.9321 592.739 11.7428L589.55 11.2777C589.234 11.2317 589 10.961 589 10.6421C589 10.2873 589.288 9.99977 589.642 9.99977H594C594.552 9.99977 595 9.55205 595 8.99977C595 8.44748 594.552 7.99977 594 7.99977H589.642C588.183 7.99977 587 9.18277 587 10.6421C587 11.9541 587.963 13.0674 589.261 13.2567L592.45 13.7219C592.766 13.7679 593 14.0385 593 14.3574C593 14.7128 592.713 14.9998 592.358 14.9998H592.351H592.344H592.336H592.329H592.321H592.314H592.306H592.299H592.291H592.284H592.276H592.268H592.261H592.253H592.246H592.238H592.231H592.223H592.215H592.208H592.2H592.192H592.185H592.177H592.169H592.162H592.154H592.146H592.138H592.131H592.123H592.115H592.107H592.1H592.092H592.084H592.076H592.068H592.061H592.053H592.045H592.037H592.029H592.021H592.013H592.005H591.998H591.99H591.982H591.974H591.966H591.958H591.95H591.942H591.934H591.926H591.918H591.91H591.902H591.894H591.886H591.878H591.87H591.862H591.854H591.846H591.837H591.829H591.821H591.813H591.805H591.797H591.789H591.781H591.772H591.764H591.756H591.748H591.74H591.732H591.723H591.715H591.707H591.699H591.691H591.682H591.674H591.666H591.658H591.649H591.641H591.633H591.624H591.616H591.608H591.599H591.591H591.583H591.575H591.566H591.558H591.549H591.541H591.533H591.524H591.516H591.508H591.499H591.491H591.482H591.474H591.466H591.457H591.449H591.44H591.432H591.423H591.415H591.406H591.398H591.389H591.381H591.372H591.364H591.355H591.347H591.338H591.33H591.321H591.313H591.304H591.296H591.287H591.279H591.27H591.261H591.253H591.244H591.236H591.227H591.218H591.21H591.201H591.193H591.184H591.175H591.167H591.158H591.149H591.141H591.132H591.123H591.115H591.106H591.097H591.089H591.08H591.071H591.063H591.054H591.045H591.037H591.028H591.019H591.01H591.002H590.993H590.984H590.976H590.967H590.958H590.949H590.941H590.932H590.923H590.914H590.906H590.897H590.888H590.879H590.87H590.862H590.853H590.844H590.835H590.826H590.818H590.809H590.8H590.791H590.782H590.773H590.765H590.756H590.747H590.738H590.729H590.72H590.712H590.703H590.694H590.685H590.676H590.667H590.658H590.65H590.641H590.632H590.623H590.614H590.605H590.596H590.587H590.579H590.57H590.561H590.552H590.543H590.534H590.525H590.516H590.507H590.498H590.49H590.481H590.472H590.463H590.454H590.445H590.436H590.427H590.418H590.409H590.4H590.391H590.382H590.373H590.365H590.356H590.347H590.338H590.329H590.32H590.311H590.302H590.293H590.284H590.275H590.266H590.257H590.248H590.239H590.23H590.221H590.212H590.203H590.194H590.185H590.177H590.168H590.159H590.15H590.141H590.132H590.123H590.114H590.105H590.096H590.087H590.078H590.069H590.06H590.051H590.042H590.033H590.024H590.015H590.006H589.997H589.988H589.979H589.97H589.961H589.952H589.943H589.934H589.926H589.917H589.908H589.899H589.89H589.881H589.872H589.863H589.854H589.845H589.836H589.827H589.818H589.809H589.8H589.791H589.782H589.773H589.764H589.755H589.746H589.738H589.729H589.72H589.711H589.702H589.693H589.684H589.675H589.666H589.657H589.648H589.639H589.63H589.621H589.612H589.604H589.595H589.586H589.577H589.568H589.559H589.55H589.541H589.532H589.523H589.514H589.506H589.497H589.488H589.479H589.47H589.461H589.452H589.443H589.435H589.426H589.417H589.408H589.399H589.39H589.381H589.373H589.364H589.355H589.346H589.337H589.328H589.319H589.311H589.302H589.293H589.284H589.275H589.267H589.258H589.249H589.24H589.231H589.223H589.214H589.205H589.196H589.187H589.179H589.17H589.161H589.152H589.144H589.135H589.126H589.117H589.109H589.1H589.091H589.082H589.074H589.065H589.056H589.047H589.039H589.03H589.021H589.013H589.004H588.995H588.987H588.978H588.969H588.961H588.952H588.943H588.935H588.926H588.917H588.909H588.9H588.891H588.883H588.874H588.866H588.857H588.848H588.84H588.831H588.823H588.814H588.806H588.797H588.788H588.78H588.771H588.763H588.754H588.746H588.737H588.729H588.72H588.712H588.703H588.695H588.686H588.678H588.669H588.661H588.652H588.644H588.635H588.627H588.619H588.61H588.602H588.593H588.585H588.576H588.568H588.56H588.551H588.543H588.535H588.526H588.518H588.51H588.501H588.493H588.485H588.476H588.468H588.46H588.451H588.443H588.435H588.427H588.418H588.41H588.402H588.393H588.385H588.377H588.369H588.361H588.352H588.344H588.336H588.328H588.32H588.312H588.303H588.295H588.287H588.279H588.271H588.263H588.255H588.247H588.238H588.23H588.222H588.214H588.206H588.198H588.19H588.182H588.174H588.166H588.158H588.15H588.142H588.134H588.126H588.118H588.11H588.102H588.094H588.086H588.079H588.071H588.063H588.055H588.047H588.039H588.031H588.023H588.016H588.008H588C587.448 14.9998 587 15.4475 587 15.9998Z" fill="#0055D9"/>
<g clip-path="url(#clip1_11383_147386)">
<path fill-rule="evenodd" clip-rule="evenodd" d="M660.095 1.32524C659.723 0.917635 659.09 0.889313 658.682 1.26198C658.341 1.57406 658.266 2.06839 658.469 2.46024C658.426 2.5271 658.336 2.63781 658.151 2.78936C657.809 3.0707 657.507 3.23222 657.17 3.41306L657.17 3.41307C657.026 3.49065 656.874 3.57179 656.71 3.66748C656.472 3.80661 656.165 4.00432 655.923 4.29928C655.653 4.62923 655.5 5.03273 655.5 5.50001C655.5 6.50846 656.276 7.14549 656.683 7.42561C656.926 7.59239 657.162 7.71708 657.334 7.79928C657.421 7.84102 657.494 7.87337 657.549 7.8961C657.576 7.9075 657.598 7.91657 657.615 7.92327L657.636 7.93156L657.644 7.93439L657.647 7.93547L657.648 7.93593L657.648 7.93614C657.649 7.93624 657.649 7.93634 658 7.00001L657.649 7.93634C658.166 8.13026 658.742 7.86825 658.936 7.35113C659.13 6.83522 658.869 6.26029 658.355 6.06504L658.351 6.06365C658.346 6.06166 658.336 6.05772 658.322 6.05191C658.295 6.04021 658.251 6.0213 658.198 5.99565C658.088 5.94308 657.949 5.86856 657.817 5.77753C657.679 5.68314 657.584 5.59444 657.53 5.52385L657.526 5.51897C657.569 5.48638 657.63 5.4465 657.718 5.39504C657.787 5.35505 657.876 5.30721 657.981 5.25118C658.35 5.05321 658.911 4.753 659.42 4.33566C660.136 3.74788 660.5 3.0989 660.5 2.42969C660.5 2.11464 660.417 1.85783 660.327 1.67402C660.283 1.58265 660.236 1.50813 660.196 1.45095C660.175 1.42222 660.156 1.39741 660.139 1.37657C660.131 1.36613 660.123 1.35664 660.115 1.3481L660.105 1.33597L660.1 1.33043L660.097 1.32779L660.096 1.3265C660.096 1.32587 660.095 1.32524 659.357 2.00001L660.095 1.32524ZM658.502 2.39722C658.504 2.38908 658.505 2.38506 658.505 2.38508C658.506 2.38511 658.505 2.38918 658.502 2.39722ZM657.496 5.46946L657.497 5.47186C657.496 5.47024 657.496 5.46945 657.496 5.46946ZM663.42 5.33568C663.847 4.98541 663.909 4.35531 663.559 3.92831C663.209 3.50131 662.578 3.43911 662.151 3.78939C661.806 4.07257 661.499 4.22886 661.15 4.40608C661.018 4.4727 660.881 4.54228 660.734 4.62266C660.499 4.75148 660.185 4.93991 659.936 5.23178C659.654 5.56208 659.5 5.96893 659.5 6.43754C659.5 6.98982 659.948 7.43754 660.5 7.43754C661.032 7.43754 661.468 7.02145 661.498 6.4967L661.504 6.49288C661.545 6.46319 661.605 6.42624 661.694 6.37741C661.759 6.34214 661.84 6.30097 661.935 6.25319C662.309 6.06451 662.887 5.77285 663.42 5.33568ZM653.914 8.70523C654.139 8.47787 654.252 8.14638 654.186 7.80839C654.08 7.26636 653.555 6.91285 653.013 7.0188C652.391 7.14033 651.864 7.29308 651.468 7.49035C651.27 7.58847 651.055 7.72218 650.876 7.9105C650.692 8.10443 650.5 8.41097 650.5 8.81519C650.5 9.26473 650.74 9.58328 650.93 9.76243C651.12 9.94148 651.347 10.0674 651.553 10.1597C651.97 10.3468 652.527 10.4941 653.181 10.6114C654.506 10.8491 656.446 11.0002 659 11.0002C661.554 11.0002 663.49 10.8491 664.813 10.6114C665.467 10.4939 666.022 10.3467 666.439 10.16C666.645 10.0678 666.87 9.94317 667.06 9.7674C667.248 9.59269 667.487 9.28363 667.5 8.84349C667.515 8.29143 667.08 7.83122 666.528 7.81559C666.14 7.8046 665.798 8.01594 665.623 8.33405L665.622 8.33437C665.42 8.42476 665.048 8.53722 664.459 8.64288C663.298 8.85145 661.492 9.00022 659 9.00022C656.764 9.00022 655.077 8.88049 653.914 8.70523ZM668.595 7.60938C668.255 7.914 668.072 8.33913 668.068 8.81653C668.064 9.3688 668.508 9.81989 669.06 9.82406C669.452 9.82702 669.793 9.60419 669.96 9.27723C669.966 9.31437 669.973 9.35426 669.978 9.39678C670.028 9.78804 669.982 10.2196 669.837 10.531C669.621 10.9952 669.382 11.3677 669.039 11.6348C668.714 11.8883 668.209 12.1133 667.337 12.1199C666.785 12.124 666.34 12.5751 666.344 13.1274C666.349 13.6796 666.8 14.124 667.352 14.1198C668.594 14.1104 669.545 13.7763 670.269 13.2124C670.975 12.6622 671.378 11.9592 671.65 11.3747C671.993 10.6374 672.047 9.80571 671.962 9.14384C671.919 8.8078 671.836 8.47145 671.704 8.17771C671.593 7.92835 671.363 7.51913 670.917 7.31158C670.712 7.21603 670.465 7.17348 670.284 7.15466C670.074 7.13284 669.807 7.12826 669.53 7.17644C669.262 7.22314 668.902 7.3339 668.595 7.60938ZM669.855 8.94955C669.855 8.9501 669.858 8.95616 669.865 8.96611C669.859 8.95398 669.855 8.949 669.855 8.94955ZM657.066 16.7549C657.369 16.4906 657.495 16.0566 657.348 15.656C657.158 15.1374 656.584 14.8711 656.065 15.0612C655.679 15.2027 655.318 15.3929 655.038 15.6543C654.752 15.921 654.5 16.315 654.5 16.8151C654.5 17.3639 654.81 17.766 655.103 18.0125C655.398 18.2608 655.774 18.441 656.172 18.5749C656.976 18.8451 658.094 19.0001 659.5 19.0001C660.906 19.0001 662.022 18.8451 662.825 18.5747C663.223 18.4406 663.597 18.2606 663.892 18.0133C664.185 17.7678 664.492 17.3713 664.5 16.8302C664.508 16.2779 664.067 15.8235 663.515 15.8152C663.059 15.8083 662.669 16.1085 662.543 16.5248C662.477 16.5638 662.364 16.6195 662.187 16.6793C661.665 16.8552 660.785 17.0001 659.5 17.0001C658.405 17.0001 657.603 16.8949 657.066 16.7549ZM655.716 11.7427C655.814 12.1106 655.694 12.4853 655.435 12.7291C656.245 12.8882 657.425 13.0002 659 13.0002C660.808 13.0002 662.092 12.8526 662.895 12.6558C663.241 12.5711 663.458 12.4865 663.579 12.4246C663.734 12.0593 664.1 11.8067 664.521 11.8154C665.073 11.8269 665.511 12.2838 665.5 12.8359C665.486 13.5164 664.979 13.9165 664.677 14.1009C664.325 14.3153 663.873 14.4753 663.371 14.5984C662.353 14.8479 660.893 15.0002 659 15.0002C657.107 15.0002 655.645 14.8479 654.625 14.5985C654.122 14.4756 653.669 14.3155 653.317 14.1003C653.016 13.9164 652.5 13.5088 652.5 12.8152C652.5 12.1792 652.929 11.7701 653.241 11.5581C653.578 11.3301 654.011 11.1623 654.492 11.034C655.026 10.8917 655.574 11.209 655.716 11.7427ZM663.68 12.362C663.681 12.3621 663.676 12.3665 663.664 12.3749C663.674 12.3662 663.68 12.362 663.68 12.362ZM654.317 12.3634C654.317 12.3634 654.324 12.3676 654.333 12.3764C654.321 12.3679 654.316 12.3635 654.317 12.3634ZM651.01 18C651.558 17.9943 652 17.5488 652 17C652 16.4477 651.552 16 651 16V17C651 16 651 16 650.999 16L650.998 16L650.996 16L650.991 16L650.978 16.0002C650.969 16.0003 650.957 16.0006 650.944 16.001C650.918 16.0019 650.884 16.0035 650.843 16.0065C650.762 16.0123 650.652 16.0234 650.523 16.0449C650.27 16.087 649.918 16.1732 649.553 16.3556C649.184 16.5399 648.785 16.8321 648.48 17.2891C648.172 17.7523 648 18.325 648 19C648 19.9771 648.624 20.6804 649.32 21.1446C650.02 21.6113 650.959 21.9581 652.007 22.2201C654.119 22.7479 656.959 23 660 23C663.041 23 665.881 22.7479 667.993 22.2201C669.041 21.9581 669.98 21.6113 670.68 21.1446C671.376 20.6804 672 19.9771 672 19C672 18.4477 671.552 18 671 18C670.448 18 670 18.4477 670 19C670 19.023 669.999 19.1946 669.57 19.4805C669.145 19.7637 668.459 20.0419 667.507 20.2799C665.619 20.7521 662.959 21 660 21C657.041 21 654.381 20.7521 652.493 20.2799C651.541 20.0419 650.855 19.7637 650.43 19.4805C650.001 19.1946 650 19.023 650 19C650 18.675 650.078 18.4977 650.145 18.3985C650.215 18.2929 650.316 18.2101 650.447 18.1444C650.582 18.0768 650.73 18.038 650.852 18.0176C650.911 18.0079 650.957 18.0034 650.985 18.0014C650.999 18.0004 651.007 18.0001 651.01 18Z" fill="#0055D9"/>
</g>
<g clip-path="url(#clip2_11383_147386)">
<rect x="432" width="24" height="24" rx="12" fill="#0055D9"/>
<path fill-rule="evenodd" clip-rule="evenodd" d="M446 2.37695C446.172 2.37695 446.312 2.51708 446.312 2.68994V10.9343C446.312 11.1071 446.172 11.2473 446 11.2473C445.827 11.2473 445.687 11.1071 445.687 10.9343V2.68994C445.687 2.51708 445.827 2.37695 446 2.37695Z" fill="white"/>
<path fill-rule="evenodd" clip-rule="evenodd" d="M441.512 3.27C441.671 3.20385 441.854 3.27968 441.921 3.43938L445.076 11.0562C445.142 11.2159 445.066 11.3989 444.906 11.4651C444.747 11.5313 444.564 11.4554 444.497 11.2957L441.342 3.67894C441.276 3.51924 441.352 3.33615 441.512 3.27Z" fill="white"/>
<path fill-rule="evenodd" clip-rule="evenodd" d="M437.707 5.81237C437.829 5.69015 438.027 5.69015 438.15 5.81237L443.979 11.6421C444.102 11.7644 444.102 11.9625 443.979 12.0848C443.857 12.207 443.659 12.207 443.537 12.0848L437.707 6.255C437.585 6.13277 437.585 5.9346 437.707 5.81237Z" fill="white"/>
<path fill-rule="evenodd" clip-rule="evenodd" d="M435.165 9.61614C435.231 9.45644 435.414 9.38061 435.573 9.44676L443.19 12.6019C443.35 12.668 443.426 12.8511 443.36 13.0108C443.293 13.1705 443.11 13.2463 442.951 13.1802L435.334 10.0251C435.174 9.95892 435.098 9.77584 435.165 9.61614Z" fill="white"/>
<path fill-rule="evenodd" clip-rule="evenodd" d="M434.271 14.105C434.271 13.9321 434.412 13.792 434.584 13.792H442.829C443.002 13.792 443.142 13.9321 443.142 14.105C443.142 14.2778 443.002 14.418 442.829 14.418H434.584C434.412 14.418 434.271 14.2778 434.271 14.105Z" fill="white"/>
<path fill-rule="evenodd" clip-rule="evenodd" d="M443.36 15.1991C443.426 15.3588 443.35 15.5419 443.19 15.6081L435.573 18.7632C435.414 18.8293 435.231 18.7535 435.165 18.5938C435.098 18.4341 435.174 18.251 435.334 18.1849L442.951 15.0298C443.11 14.9636 443.293 15.0394 443.36 15.1991Z" fill="white"/>
<path fill-rule="evenodd" clip-rule="evenodd" d="M443.979 16.1259C444.102 16.2481 444.102 16.4462 443.979 16.5685L438.15 22.3982C438.027 22.5205 437.829 22.5205 437.707 22.3982C437.585 22.276 437.585 22.0778 437.707 21.9556L443.537 16.1259C443.659 16.0036 443.857 16.0036 443.979 16.1259Z" fill="white"/>
<path fill-rule="evenodd" clip-rule="evenodd" d="M444.906 16.7456C445.066 16.8117 445.142 16.9948 445.076 17.1545L441.921 24.7713C441.854 24.931 441.671 25.0068 441.512 24.9407C441.352 24.8745 441.276 24.6915 441.342 24.5318L444.497 16.915C444.564 16.7553 444.747 16.6794 444.906 16.7456Z" fill="white"/>
<path fill-rule="evenodd" clip-rule="evenodd" d="M446 16.9639C446.172 16.9639 446.312 17.104 446.312 17.2768V25.5212C446.312 25.694 446.172 25.8342 446 25.8342C445.827 25.8342 445.687 25.694 445.687 25.5212V17.2768C445.687 17.104 445.827 16.9639 446 16.9639Z" fill="white"/>
<path fill-rule="evenodd" clip-rule="evenodd" d="M447.094 16.7456C447.253 16.6794 447.436 16.7553 447.503 16.915L450.658 24.5318C450.724 24.6915 450.648 24.8745 450.488 24.9407C450.329 25.0068 450.146 24.931 450.079 24.7713L446.924 17.1545C446.858 16.9948 446.934 16.8117 447.094 16.7456Z" fill="white"/>
<path fill-rule="evenodd" clip-rule="evenodd" d="M448.02 16.1259C448.143 16.0036 448.341 16.0036 448.463 16.1259L454.293 21.9556C454.415 22.0778 454.415 22.276 454.293 22.3982C454.171 22.5205 453.972 22.5205 453.85 22.3982L448.02 16.5685C447.898 16.4462 447.898 16.2481 448.02 16.1259Z" fill="white"/>
<path fill-rule="evenodd" clip-rule="evenodd" d="M448.64 15.1991C448.706 15.0394 448.889 14.9636 449.049 15.0298L456.666 18.1849C456.826 18.251 456.901 18.4341 456.835 18.5938C456.769 18.7535 456.586 18.8293 456.426 18.7632L448.809 15.6081C448.65 15.5419 448.574 15.3588 448.64 15.1991Z" fill="white"/>
<path fill-rule="evenodd" clip-rule="evenodd" d="M448.857 14.105C448.857 13.9321 448.998 13.792 449.17 13.792H457.415C457.588 13.792 457.728 13.9321 457.728 14.105C457.728 14.2778 457.588 14.418 457.415 14.418H449.17C448.998 14.418 448.857 14.2778 448.857 14.105Z" fill="white"/>
<path fill-rule="evenodd" clip-rule="evenodd" d="M456.835 9.61614C456.901 9.77584 456.826 9.95892 456.666 10.0251L449.049 13.1802C448.889 13.2463 448.706 13.1705 448.64 13.0108C448.574 12.8511 448.65 12.668 448.809 12.6019L456.426 9.44676C456.586 9.38061 456.769 9.45644 456.835 9.61614Z" fill="white"/>
<path fill-rule="evenodd" clip-rule="evenodd" d="M454.293 5.81237C454.415 5.9346 454.415 6.13277 454.293 6.255L448.463 12.0848C448.341 12.207 448.143 12.207 448.02 12.0848C447.898 11.9625 447.898 11.7644 448.02 11.6421L453.85 5.81237C453.972 5.69015 454.171 5.69015 454.293 5.81237Z" fill="white"/>
<path fill-rule="evenodd" clip-rule="evenodd" d="M450.488 3.27C450.648 3.33615 450.724 3.51924 450.658 3.67894L447.503 11.2957C447.436 11.4554 447.253 11.5313 447.094 11.4651C446.934 11.3989 446.858 11.2159 446.924 11.0562L450.079 3.43938C450.146 3.27968 450.329 3.20385 450.488 3.27Z" fill="white"/>
<path fill-rule="evenodd" clip-rule="evenodd" d="M446 1.85547C446.461 1.85547 446.834 2.22914 446.834 2.69009V6.73507C446.834 7.19602 446.461 7.56969 446 7.56969C445.539 7.56969 445.165 7.19602 445.165 6.73507V2.69009C445.165 2.22914 445.539 1.85547 446 1.85547Z" fill="white"/>
<path fill-rule="evenodd" clip-rule="evenodd" d="M441.312 2.78836C441.738 2.61196 442.226 2.8142 442.403 3.24006L444.216 7.61784C444.393 8.0437 444.19 8.53192 443.764 8.70832C443.339 8.88471 442.85 8.68248 442.674 8.25662L440.861 3.87884C440.684 3.45298 440.886 2.96475 441.312 2.78836Z" fill="white"/>
<path fill-rule="evenodd" clip-rule="evenodd" d="M437.338 5.44367C437.664 5.11773 438.193 5.11773 438.519 5.44367L442.245 9.16985C442.571 9.49579 442.571 10.0242 442.245 10.3502C441.919 10.6761 441.39 10.6761 441.064 10.3502L437.338 6.62401C437.012 6.29807 437.012 5.76961 437.338 5.44367Z" fill="white"/>
<path fill-rule="evenodd" clip-rule="evenodd" d="M434.683 9.41678C434.859 8.99093 435.348 8.78872 435.773 8.96513L440.943 11.1068C441.369 11.2832 441.571 11.7714 441.395 12.1973C441.218 12.6231 440.73 12.8253 440.304 12.6489L435.135 10.5073C434.709 10.3309 434.506 9.84263 434.683 9.41678Z" fill="white"/>
<path fill-rule="evenodd" clip-rule="evenodd" d="M433.75 14.1051C433.75 13.6442 434.124 13.2705 434.585 13.2705H440.292C440.753 13.2705 441.127 13.6442 441.127 14.1051C441.127 14.5661 440.753 14.9397 440.292 14.9397H434.585C434.124 14.9397 433.75 14.5661 433.75 14.1051Z" fill="white"/>
<path fill-rule="evenodd" clip-rule="evenodd" d="M441.395 16.0125C441.571 16.4383 441.369 16.9266 440.943 17.103L435.773 19.2446C435.348 19.421 434.859 19.2188 434.683 18.793C434.506 18.3671 434.709 17.8789 435.135 17.7025L440.304 15.5608C440.73 15.3844 441.218 15.5866 441.395 16.0125Z" fill="white"/>
<path fill-rule="evenodd" clip-rule="evenodd" d="M442.245 17.8596C442.571 18.1856 442.571 18.714 442.245 19.04L438.519 22.7667C438.193 23.0927 437.664 23.0927 437.338 22.7668C437.012 22.4409 437.012 21.9124 437.338 21.5865L441.064 17.8597C441.39 17.5338 441.919 17.5337 442.245 17.8596Z" fill="white"/>
<path fill-rule="evenodd" clip-rule="evenodd" d="M443.764 19.5022C444.19 19.6786 444.393 20.1668 444.216 20.5927L442.403 24.9705C442.226 25.3963 441.738 25.5986 441.312 25.4222C440.886 25.2458 440.684 24.7576 440.861 24.3317L442.674 19.9539C442.85 19.5281 443.339 19.3258 443.764 19.5022Z" fill="white"/>
<path fill-rule="evenodd" clip-rule="evenodd" d="M446 20.6416C446.461 20.6416 446.834 21.0153 446.834 21.4762V25.5212C446.834 25.9822 446.461 26.3558 446 26.3558C445.539 26.3558 445.165 25.9822 445.165 25.5212V21.4762C445.165 21.0153 445.539 20.6416 446 20.6416Z" fill="white"/>
<path fill-rule="evenodd" clip-rule="evenodd" d="M448.793 20.848C449.219 20.6715 449.707 20.8737 449.883 21.2996L451.139 24.3316C451.316 24.7575 451.114 25.2457 450.688 25.4221C450.262 25.5986 449.774 25.3964 449.597 24.9705L448.341 21.9385C448.165 21.5126 448.367 21.0244 448.793 20.848Z" fill="white"/>
<path fill-rule="evenodd" clip-rule="evenodd" d="M451.658 19.763C451.983 19.4371 452.512 19.4371 452.838 19.763L454.662 21.5869C454.988 21.9129 454.988 22.4413 454.662 22.7673C454.336 23.0932 453.807 23.0932 453.481 22.7673L451.658 20.9433C451.332 20.6174 451.332 20.0889 451.658 19.763Z" fill="white"/>
<path fill-rule="evenodd" clip-rule="evenodd" d="M453.852 17.3573C454.028 16.9314 454.516 16.7292 454.942 16.9055L456.865 17.702C457.291 17.8784 457.493 18.3666 457.317 18.7925C457.141 19.2184 456.652 19.4206 456.226 19.2442L454.304 18.4477C453.878 18.2713 453.675 17.7831 453.852 17.3573Z" fill="white"/>
<path fill-rule="evenodd" clip-rule="evenodd" d="M454.678 14.1051C454.678 13.6442 455.051 13.2705 455.512 13.2705H457.415C457.876 13.2705 458.25 13.6442 458.25 14.1051C458.25 14.5661 457.876 14.9397 457.415 14.9397H455.512C455.051 14.9397 454.678 14.5661 454.678 14.1051Z" fill="white"/>
<path fill-rule="evenodd" clip-rule="evenodd" d="M457.317 9.41682C457.493 9.84269 457.291 10.3309 456.865 10.5073L454.942 11.3038C454.516 11.4802 454.028 11.2779 453.852 10.8521C453.675 10.4262 453.878 9.93797 454.304 9.76158L456.226 8.96511C456.652 8.78872 457.141 8.99096 457.317 9.41682Z" fill="white"/>
<path fill-rule="evenodd" clip-rule="evenodd" d="M454.662 5.44367C454.988 5.76961 454.988 6.29807 454.662 6.62401L452.838 8.44794C452.512 8.77388 451.983 8.77388 451.658 8.44794C451.332 8.122 451.332 7.59355 451.658 7.26761L453.481 5.44367C453.807 5.11773 454.336 5.11773 454.662 5.44367Z" fill="white"/>
<path fill-rule="evenodd" clip-rule="evenodd" d="M450.688 2.78839C451.114 2.96482 451.316 3.45306 451.139 3.87891L449.883 6.91097C449.707 7.33682 449.219 7.53901 448.793 7.36257C448.367 7.18614 448.165 6.69789 448.341 6.27205L449.597 3.23999C449.774 2.81414 450.262 2.61195 450.688 2.78839Z" fill="white"/>
</g>
<g clip-path="url(#clip3_11383_147386)">
<path fill-rule="evenodd" clip-rule="evenodd" d="M158.089 2.03755C157.639 2.00078 157.057 2 156.2 2H154C152.895 2 152 2.89543 152 4C152 4.72858 151.805 5.41165 151.465 6H154.5C155.052 6 155.5 6.44772 155.5 7C155.5 7.55229 155.052 8 154.5 8H148.004L148 8C146.895 8 146 8.89543 146 10V12.2649C146 13.1111 146.001 13.686 146.037 14.1306C146.072 14.5635 146.136 14.7856 146.214 14.9413C146.403 15.315 146.704 15.6202 147.075 15.8138C147.23 15.8944 147.451 15.9612 147.883 16.0023C148.327 16.0444 148.902 16.053 149.748 16.0645L150.001 16.068C150.004 15.564 150.013 15.1261 150.044 14.7482C150.09 14.1861 150.189 13.6694 150.436 13.184C150.819 12.4314 151.431 11.8195 152.184 11.436C152.669 11.1887 153.186 11.0901 153.748 11.0442C154.289 11 154.954 11 155.759 11H155.8H156.2C157.057 11 157.639 10.9992 158.089 10.9625C158.527 10.9266 158.752 10.8617 158.908 10.782C159.284 10.5903 159.59 10.2843 159.782 9.90798C159.862 9.75158 159.927 9.52738 159.962 9.08896C159.999 8.63887 160 8.05658 160 7.2V7V5.8C160 4.94342 159.999 4.36113 159.962 3.91104C159.927 3.47262 159.862 3.24842 159.782 3.09202C159.59 2.7157 159.284 2.40974 158.908 2.21799C158.752 2.1383 158.527 2.07337 158.089 2.03755ZM150 18.0681L149.721 18.0644L149.68 18.0638H149.68C148.885 18.053 148.229 18.0441 147.694 17.9933C147.139 17.9405 146.628 17.8366 146.15 17.5871C145.408 17.1999 144.806 16.5895 144.429 15.842C144.186 15.3603 144.089 14.8488 144.043 14.2926C144 13.7573 144 13.1008 144 12.3059L144 12.2649V10C144 7.79086 145.791 6 148 6C149.105 6 150 5.10457 150 4C150 1.79086 151.791 3.66666e-07 154 3.66666e-07H156.2H156.241H156.241C157.046 -1.10779e-05 157.711 -2.05228e-05 158.252 0.0441958C158.814 0.090121 159.331 0.188685 159.816 0.435976C160.569 0.81947 161.181 1.43139 161.564 2.18404C161.811 2.66938 161.91 3.18608 161.956 3.74818C162 4.28937 162 4.95372 162 5.75868V5.8V6H162.2H162.241H162.241C163.046 5.99999 163.711 5.99998 164.252 6.0442C164.814 6.09012 165.331 6.18869 165.816 6.43598C166.569 6.81947 167.181 7.43139 167.564 8.18404C167.811 8.66938 167.91 9.18608 167.956 9.74818C168 10.2894 168 10.9537 168 11.7587V11.8V14C168 16.2091 166.209 18 164 18C162.895 18 162 18.8954 162 20C162 22.2091 160.209 24 158 24H155.8H155.759C154.954 24 154.289 24 153.748 23.9558C153.186 23.9099 152.669 23.8113 152.184 23.564C151.431 23.1805 150.819 22.5686 150.436 21.816C150.189 21.3306 150.09 20.8139 150.044 20.2518C150 19.7106 150 19.0463 150 18.2413V18.2413V18.2V18.0681ZM161.998 8C161.995 8.47547 161.985 8.89102 161.956 9.25183C161.91 9.81393 161.811 10.3306 161.564 10.816C161.181 11.5686 160.569 12.1805 159.816 12.564C159.331 12.8113 158.814 12.9099 158.252 12.9558C157.711 13 157.046 13 156.241 13H156.2H155.8C154.943 13 154.361 13.0008 153.911 13.0376C153.473 13.0734 153.248 13.1383 153.092 13.218C152.716 13.4097 152.41 13.7157 152.218 14.092C152.138 14.2484 152.073 14.4726 152.038 14.911C152.001 15.3611 152 15.9434 152 16.8V17.0817V18.2C152 19.0566 152.001 19.6389 152.038 20.089C152.073 20.5274 152.138 20.7516 152.218 20.908C152.41 21.2843 152.716 21.5903 153.092 21.782C153.248 21.8617 153.473 21.9266 153.911 21.9625C154.361 21.9992 154.943 22 155.8 22H158C159.105 22 160 21.1046 160 20C160 19.2714 160.195 18.5883 160.535 18H158C157.448 18 157 17.5523 157 17C157 16.4477 157.448 16 158 16L164 16L164.003 16C165.106 15.9985 166 15.1036 166 14V11.8C166 10.9434 165.999 10.3611 165.962 9.91104C165.927 9.47263 165.862 9.24842 165.782 9.09202C165.59 8.7157 165.284 8.40974 164.908 8.21799C164.752 8.1383 164.527 8.07337 164.089 8.03755C163.639 8.00078 163.057 8 162.2 8H161.998ZM156.546 20.7272C155.943 20.7272 155.455 20.2391 155.455 19.6342C155.455 19.0334 155.943 18.5453 156.546 18.5453C157.148 18.5453 157.636 19.0334 157.636 19.6342C157.636 20.2391 157.148 20.7272 156.546 20.7272ZM154.364 4.36144C154.364 4.96634 154.852 5.45443 155.455 5.45443C156.057 5.45443 156.546 4.96634 156.546 4.36144C156.546 3.7607 156.057 3.27262 155.455 3.27262C154.852 3.27262 154.364 3.7607 154.364 4.36144Z" fill="#1E2126"/>
</g>
<path fill-rule="evenodd" clip-rule="evenodd" d="M229 2.73182C228.381 2.37456 227.619 2.37456 227 2.73182L220.474 6.49977V6.49977C220.081 6.72637 219.784 7.07483 219.62 7.48173C219.525 7.71638 219.474 7.97047 219.474 8.23182V8.23183V15.7677C219.474 16.0694 219.542 16.3613 219.667 16.6249L219.658 16.6314C219.825 16.9926 220.099 17.3019 220.453 17.5118L221.253 17.987C222.523 17.9586 222.812 17.7183 222.868 17.6543C222.891 17.6268 222.935 17.5626 222.965 17.3691C222.998 17.1563 223 16.8957 223 16.4998V8.99977C223 8.44748 223.448 7.99977 224 7.99977C224.552 7.99977 225 8.44748 225 8.99977V16.4998L225 16.5375C225 16.8838 225 17.2934 224.941 17.6742C224.878 18.0882 224.734 18.5527 224.382 18.9602C223.714 19.7361 222.591 19.9744 221.146 19.989C220.927 20.0216 220.695 19.9817 220.489 19.8596L219.432 19.2315C218.218 18.5108 217.474 17.2037 217.474 15.792V15.7677V8.23183V8.23182C217.474 6.80275 218.236 5.48225 219.474 4.76771L226 0.999766C227.238 0.285235 228.762 0.285234 230 0.999766L233.263 2.88374L233.267 2.88581L236.526 4.76772C237.764 5.48225 238.526 6.80276 238.526 8.23183V15.7677C238.526 17.1968 237.764 18.5173 236.526 19.2318L230 22.9998C228.762 23.7143 227.238 23.7143 226 22.9998L223.688 21.6647C224.376 21.4292 225.036 21.0486 225.601 20.4599L227 21.2677C227.619 21.625 228.381 21.625 229 21.2677L235.526 17.4998C236.145 17.1425 236.526 16.4823 236.526 15.7677V8.23183C236.526 7.51729 236.145 6.85704 235.526 6.49977L232.263 4.61579L229 2.73182ZM227 15.9998C227 16.5521 227.448 16.9998 228 16.9998H228.008H228.016H228.023H228.031H228.039H228.047H228.055H228.063H228.071H228.079H228.086H228.094H228.102H228.11H228.118H228.126H228.134H228.142H228.15H228.158H228.166H228.174H228.182H228.19H228.198H228.206H228.214H228.222H228.23H228.238H228.247H228.255H228.263H228.271H228.279H228.287H228.295H228.303H228.312H228.32H228.328H228.336H228.344H228.352H228.361H228.369H228.377H228.385H228.393H228.402H228.41H228.418H228.427H228.435H228.443H228.451H228.46H228.468H228.476H228.485H228.493H228.501H228.51H228.518H228.526H228.535H228.543H228.551H228.56H228.568H228.576H228.585H228.593H228.602H228.61H228.619H228.627H228.635H228.644H228.652H228.661H228.669H228.678H228.686H228.695H228.703H228.712H228.72H228.729H228.737H228.746H228.754H228.763H228.771H228.78H228.788H228.797H228.806H228.814H228.823H228.831H228.84H228.848H228.857H228.866H228.874H228.883H228.891H228.9H228.909H228.917H228.926H228.935H228.943H228.952H228.961H228.969H228.978H228.987H228.995H229.004H229.013H229.021H229.03H229.039H229.047H229.056H229.065H229.074H229.082H229.091H229.1H229.109H229.117H229.126H229.135H229.144H229.152H229.161H229.17H229.179H229.187H229.196H229.205H229.214H229.223H229.231H229.24H229.249H229.258H229.267H229.275H229.284H229.293H229.302H229.311H229.319H229.328H229.337H229.346H229.355H229.364H229.373H229.381H229.39H229.399H229.408H229.417H229.426H229.435H229.443H229.452H229.461H229.47H229.479H229.488H229.497H229.506H229.514H229.523H229.532H229.541H229.55H229.559H229.568H229.577H229.586H229.595H229.604H229.612H229.621H229.63H229.639H229.648H229.657H229.666H229.675H229.684H229.693H229.702H229.711H229.72H229.729H229.738H229.746H229.755H229.764H229.773H229.782H229.791H229.8H229.809H229.818H229.827H229.836H229.845H229.854H229.863H229.872H229.881H229.89H229.899H229.908H229.917H229.926H229.934H229.943H229.952H229.961H229.97H229.979H229.988H229.997H230.006H230.015H230.024H230.033H230.042H230.051H230.06H230.069H230.078H230.087H230.096H230.105H230.114H230.123H230.132H230.141H230.15H230.159H230.168H230.177H230.185H230.194H230.203H230.212H230.221H230.23H230.239H230.248H230.257H230.266H230.275H230.284H230.293H230.302H230.311H230.32H230.329H230.338H230.347H230.356H230.365H230.373H230.382H230.391H230.4H230.409H230.418H230.427H230.436H230.445H230.454H230.463H230.472H230.481H230.49H230.498H230.507H230.516H230.525H230.534H230.543H230.552H230.561H230.57H230.579H230.587H230.596H230.605H230.614H230.623H230.632H230.641H230.65H230.658H230.667H230.676H230.685H230.694H230.703H230.712H230.72H230.729H230.738H230.747H230.756H230.765H230.773H230.782H230.791H230.8H230.809H230.818H230.826H230.835H230.844H230.853H230.862H230.87H230.879H230.888H230.897H230.906H230.914H230.923H230.932H230.941H230.949H230.958H230.967H230.976H230.984H230.993H231.002H231.01H231.019H231.028H231.037H231.045H231.054H231.063H231.071H231.08H231.089H231.097H231.106H231.115H231.123H231.132H231.141H231.149H231.158H231.167H231.175H231.184H231.193H231.201H231.21H231.218H231.227H231.236H231.244H231.253H231.261H231.27H231.279H231.287H231.296H231.304H231.313H231.321H231.33H231.338H231.347H231.355H231.364H231.372H231.381H231.389H231.398H231.406H231.415H231.423H231.432H231.44H231.449H231.457H231.466H231.474H231.482H231.491H231.499H231.508H231.516H231.524H231.533H231.541H231.549H231.558H231.566H231.575H231.583H231.591H231.599H231.608H231.616H231.624H231.633H231.641H231.649H231.658H231.666H231.674H231.682H231.691H231.699H231.707H231.715H231.723H231.732H231.74H231.748H231.756H231.764H231.772H231.781H231.789H231.797H231.805H231.813H231.821H231.829H231.837H231.846H231.854H231.862H231.87H231.878H231.886H231.894H231.902H231.91H231.918H231.926H231.934H231.942H231.95H231.958H231.966H231.974H231.982H231.99H231.998H232.005H232.013H232.021H232.029H232.037H232.045H232.053H232.061H232.068H232.076H232.084H232.092H232.1H232.107H232.115H232.123H232.131H232.138H232.146H232.154H232.162H232.169H232.177H232.185H232.192H232.2H232.208H232.215H232.223H232.231H232.238H232.246H232.253H232.261H232.268H232.276H232.284H232.291H232.299H232.306H232.314H232.321H232.329H232.336H232.344H232.351H232.358C233.818 16.9998 235 15.8162 235 14.3574C235 13.0454 234.037 11.9321 232.739 11.7428L229.55 11.2777C229.234 11.2317 229 10.961 229 10.6421C229 10.2873 229.288 9.99977 229.642 9.99977H234C234.552 9.99977 235 9.55205 235 8.99977C235 8.44748 234.552 7.99977 234 7.99977H229.642C228.183 7.99977 227 9.18277 227 10.6421C227 11.9541 227.963 13.0674 229.261 13.2567L232.45 13.7219C232.766 13.7679 233 14.0385 233 14.3574C233 14.7128 232.713 14.9998 232.358 14.9998H232.351H232.344H232.336H232.329H232.321H232.314H232.306H232.299H232.291H232.284H232.276H232.268H232.261H232.253H232.246H232.238H232.231H232.223H232.215H232.208H232.2H232.192H232.185H232.177H232.169H232.162H232.154H232.146H232.138H232.131H232.123H232.115H232.107H232.1H232.092H232.084H232.076H232.068H232.061H232.053H232.045H232.037H232.029H232.021H232.013H232.005H231.998H231.99H231.982H231.974H231.966H231.958H231.95H231.942H231.934H231.926H231.918H231.91H231.902H231.894H231.886H231.878H231.87H231.862H231.854H231.846H231.837H231.829H231.821H231.813H231.805H231.797H231.789H231.781H231.772H231.764H231.756H231.748H231.74H231.732H231.723H231.715H231.707H231.699H231.691H231.682H231.674H231.666H231.658H231.649H231.641H231.633H231.624H231.616H231.608H231.599H231.591H231.583H231.575H231.566H231.558H231.549H231.541H231.533H231.524H231.516H231.508H231.499H231.491H231.482H231.474H231.466H231.457H231.449H231.44H231.432H231.423H231.415H231.406H231.398H231.389H231.381H231.372H231.364H231.355H231.347H231.338H231.33H231.321H231.313H231.304H231.296H231.287H231.279H231.27H231.261H231.253H231.244H231.236H231.227H231.218H231.21H231.201H231.193H231.184H231.175H231.167H231.158H231.149H231.141H231.132H231.123H231.115H231.106H231.097H231.089H231.08H231.071H231.063H231.054H231.045H231.037H231.028H231.019H231.01H231.002H230.993H230.984H230.976H230.967H230.958H230.949H230.941H230.932H230.923H230.914H230.906H230.897H230.888H230.879H230.87H230.862H230.853H230.844H230.835H230.826H230.818H230.809H230.8H230.791H230.782H230.773H230.765H230.756H230.747H230.738H230.729H230.72H230.712H230.703H230.694H230.685H230.676H230.667H230.658H230.65H230.641H230.632H230.623H230.614H230.605H230.596H230.587H230.579H230.57H230.561H230.552H230.543H230.534H230.525H230.516H230.507H230.498H230.49H230.481H230.472H230.463H230.454H230.445H230.436H230.427H230.418H230.409H230.4H230.391H230.382H230.373H230.365H230.356H230.347H230.338H230.329H230.32H230.311H230.302H230.293H230.284H230.275H230.266H230.257H230.248H230.239H230.23H230.221H230.212H230.203H230.194H230.185H230.177H230.168H230.159H230.15H230.141H230.132H230.123H230.114H230.105H230.096H230.087H230.078H230.069H230.06H230.051H230.042H230.033H230.024H230.015H230.006H229.997H229.988H229.979H229.97H229.961H229.952H229.943H229.934H229.926H229.917H229.908H229.899H229.89H229.881H229.872H229.863H229.854H229.845H229.836H229.827H229.818H229.809H229.8H229.791H229.782H229.773H229.764H229.755H229.746H229.738H229.729H229.72H229.711H229.702H229.693H229.684H229.675H229.666H229.657H229.648H229.639H229.63H229.621H229.612H229.604H229.595H229.586H229.577H229.568H229.559H229.55H229.541H229.532H229.523H229.514H229.506H229.497H229.488H229.479H229.47H229.461H229.452H229.443H229.435H229.426H229.417H229.408H229.399H229.39H229.381H229.373H229.364H229.355H229.346H229.337H229.328H229.319H229.311H229.302H229.293H229.284H229.275H229.267H229.258H229.249H229.24H229.231H229.223H229.214H229.205H229.196H229.187H229.179H229.17H229.161H229.152H229.144H229.135H229.126H229.117H229.109H229.1H229.091H229.082H229.074H229.065H229.056H229.047H229.039H229.03H229.021H229.013H229.004H228.995H228.987H228.978H228.969H228.961H228.952H228.943H228.935H228.926H228.917H228.909H228.9H228.891H228.883H228.874H228.866H228.857H228.848H228.84H228.831H228.823H228.814H228.806H228.797H228.788H228.78H228.771H228.763H228.754H228.746H228.737H228.729H228.72H228.712H228.703H228.695H228.686H228.678H228.669H228.661H228.652H228.644H228.635H228.627H228.619H228.61H228.602H228.593H228.585H228.576H228.568H228.56H228.551H228.543H228.535H228.526H228.518H228.51H228.501H228.493H228.485H228.476H228.468H228.46H228.451H228.443H228.435H228.427H228.418H228.41H228.402H228.393H228.385H228.377H228.369H228.361H228.352H228.344H228.336H228.328H228.32H228.312H228.303H228.295H228.287H228.279H228.271H228.263H228.255H228.247H228.238H228.23H228.222H228.214H228.206H228.198H228.19H228.182H228.174H228.166H228.158H228.15H228.142H228.134H228.126H228.118H228.11H228.102H228.094H228.086H228.079H228.071H228.063H228.055H228.047H228.039H228.031H228.023H228.016H228.008H228C227.448 14.9998 227 15.4475 227 15.9998Z" fill="#1E2126"/>
<g clip-path="url(#clip4_11383_147386)">
<path fill-rule="evenodd" clip-rule="evenodd" d="M300.095 1.32524C299.723 0.917635 299.09 0.889313 298.682 1.26198C298.341 1.57406 298.266 2.06839 298.469 2.46024C298.426 2.5271 298.336 2.63781 298.151 2.78936C297.809 3.0707 297.507 3.23222 297.17 3.41306L297.17 3.41307C297.026 3.49065 296.874 3.57179 296.71 3.66748C296.472 3.80661 296.165 4.00432 295.923 4.29928C295.653 4.62923 295.5 5.03273 295.5 5.50001C295.5 6.50846 296.276 7.14549 296.683 7.42561C296.926 7.59239 297.162 7.71708 297.334 7.79928C297.421 7.84102 297.494 7.87337 297.549 7.8961C297.576 7.9075 297.598 7.91657 297.615 7.92327L297.636 7.93156L297.644 7.93439L297.647 7.93547L297.648 7.93593L297.648 7.93614C297.649 7.93624 297.649 7.93634 298 7.00001L297.649 7.93634C298.166 8.13026 298.742 7.86825 298.936 7.35113C299.13 6.83522 298.869 6.26029 298.355 6.06504L298.351 6.06365C298.346 6.06166 298.336 6.05772 298.322 6.05191C298.295 6.04021 298.251 6.0213 298.198 5.99565C298.088 5.94308 297.949 5.86856 297.817 5.77753C297.679 5.68314 297.584 5.59444 297.53 5.52385L297.526 5.51897C297.569 5.48638 297.63 5.4465 297.718 5.39504C297.787 5.35505 297.876 5.30721 297.981 5.25118C298.35 5.05321 298.911 4.753 299.42 4.33566C300.136 3.74788 300.5 3.0989 300.5 2.42969C300.5 2.11464 300.417 1.85783 300.327 1.67402C300.283 1.58265 300.236 1.50813 300.196 1.45095C300.175 1.42222 300.156 1.39741 300.139 1.37657C300.131 1.36613 300.123 1.35664 300.115 1.3481L300.105 1.33597L300.1 1.33043L300.097 1.32779L300.096 1.3265C300.096 1.32587 300.095 1.32524 299.357 2.00001L300.095 1.32524ZM298.502 2.39722C298.504 2.38908 298.505 2.38506 298.505 2.38508C298.506 2.38511 298.505 2.38918 298.502 2.39722ZM297.496 5.46946L297.497 5.47186C297.496 5.47024 297.496 5.46945 297.496 5.46946ZM303.42 5.33568C303.847 4.98541 303.909 4.35531 303.559 3.92831C303.209 3.50131 302.578 3.43911 302.151 3.78939C301.806 4.07257 301.499 4.22886 301.15 4.40608C301.018 4.4727 300.881 4.54228 300.734 4.62266C300.499 4.75148 300.185 4.93991 299.936 5.23178C299.654 5.56208 299.5 5.96893 299.5 6.43754C299.5 6.98982 299.948 7.43754 300.5 7.43754C301.032 7.43754 301.468 7.02145 301.498 6.4967L301.504 6.49288C301.545 6.46319 301.605 6.42624 301.694 6.37741C301.759 6.34214 301.84 6.30097 301.935 6.25319C302.309 6.06451 302.887 5.77285 303.42 5.33568ZM293.914 8.70523C294.139 8.47787 294.252 8.14638 294.186 7.80839C294.08 7.26636 293.555 6.91285 293.013 7.0188C292.391 7.14033 291.864 7.29308 291.468 7.49035C291.27 7.58847 291.055 7.72218 290.876 7.9105C290.692 8.10443 290.5 8.41097 290.5 8.81519C290.5 9.26473 290.74 9.58328 290.93 9.76243C291.12 9.94148 291.347 10.0674 291.553 10.1597C291.97 10.3468 292.527 10.4941 293.181 10.6114C294.506 10.8491 296.446 11.0002 299 11.0002C301.554 11.0002 303.49 10.8491 304.813 10.6114C305.467 10.4939 306.022 10.3467 306.439 10.16C306.645 10.0678 306.87 9.94317 307.06 9.7674C307.248 9.59269 307.487 9.28363 307.5 8.84349C307.515 8.29143 307.08 7.83122 306.528 7.81559C306.14 7.8046 305.798 8.01594 305.623 8.33405L305.622 8.33437C305.42 8.42476 305.048 8.53722 304.459 8.64288C303.298 8.85145 301.492 9.00022 299 9.00022C296.764 9.00022 295.077 8.88049 293.914 8.70523ZM308.595 7.60938C308.255 7.914 308.072 8.33913 308.068 8.81653C308.064 9.3688 308.508 9.81989 309.06 9.82406C309.452 9.82702 309.793 9.60419 309.96 9.27723C309.966 9.31437 309.973 9.35426 309.978 9.39678C310.028 9.78804 309.982 10.2196 309.837 10.531C309.621 10.9952 309.382 11.3677 309.039 11.6348C308.714 11.8883 308.209 12.1133 307.337 12.1199C306.785 12.124 306.34 12.5751 306.344 13.1274C306.349 13.6796 306.8 14.124 307.352 14.1198C308.594 14.1104 309.545 13.7763 310.269 13.2124C310.975 12.6622 311.378 11.9592 311.65 11.3747C311.993 10.6374 312.047 9.80571 311.962 9.14384C311.919 8.8078 311.836 8.47145 311.704 8.17771C311.593 7.92835 311.363 7.51913 310.917 7.31158C310.712 7.21603 310.465 7.17348 310.284 7.15466C310.074 7.13284 309.807 7.12826 309.53 7.17644C309.262 7.22314 308.902 7.3339 308.595 7.60938ZM309.855 8.94955C309.855 8.9501 309.858 8.95616 309.865 8.96611C309.859 8.95398 309.855 8.949 309.855 8.94955ZM297.066 16.7549C297.369 16.4906 297.495 16.0566 297.348 15.656C297.158 15.1374 296.584 14.8711 296.065 15.0612C295.679 15.2027 295.318 15.3929 295.038 15.6543C294.752 15.921 294.5 16.315 294.5 16.8151C294.5 17.3639 294.81 17.766 295.103 18.0125C295.398 18.2608 295.774 18.441 296.172 18.5749C296.976 18.8451 298.094 19.0001 299.5 19.0001C300.906 19.0001 302.022 18.8451 302.825 18.5747C303.223 18.4406 303.597 18.2606 303.892 18.0133C304.185 17.7678 304.492 17.3713 304.5 16.8302C304.508 16.2779 304.067 15.8235 303.515 15.8152C303.059 15.8083 302.669 16.1085 302.543 16.5248C302.477 16.5638 302.364 16.6195 302.187 16.6793C301.665 16.8552 300.785 17.0001 299.5 17.0001C298.405 17.0001 297.603 16.8949 297.066 16.7549ZM295.716 11.7427C295.814 12.1106 295.694 12.4853 295.435 12.7291C296.245 12.8882 297.425 13.0002 299 13.0002C300.808 13.0002 302.092 12.8526 302.895 12.6558C303.241 12.5711 303.458 12.4865 303.579 12.4246C303.734 12.0593 304.1 11.8067 304.521 11.8154C305.073 11.8269 305.511 12.2838 305.5 12.8359C305.486 13.5164 304.979 13.9165 304.677 14.1009C304.325 14.3153 303.873 14.4753 303.371 14.5984C302.353 14.8479 300.893 15.0002 299 15.0002C297.107 15.0002 295.645 14.8479 294.625 14.5985C294.122 14.4756 293.669 14.3155 293.317 14.1003C293.016 13.9164 292.5 13.5088 292.5 12.8152C292.5 12.1792 292.929 11.7701 293.241 11.5581C293.578 11.3301 294.011 11.1623 294.492 11.034C295.026 10.8917 295.574 11.209 295.716 11.7427ZM303.68 12.362C303.681 12.3621 303.676 12.3665 303.664 12.3749C303.674 12.3662 303.68 12.362 303.68 12.362ZM294.317 12.3634C294.317 12.3634 294.324 12.3676 294.333 12.3764C294.321 12.3679 294.316 12.3635 294.317 12.3634ZM291.01 18C291.558 17.9943 292 17.5488 292 17C292 16.4477 291.552 16 291 16V17C291 16 291 16 290.999 16L290.998 16L290.996 16L290.991 16L290.978 16.0002C290.969 16.0003 290.957 16.0006 290.944 16.001C290.918 16.0019 290.884 16.0035 290.843 16.0065C290.762 16.0123 290.652 16.0234 290.523 16.0449C290.27 16.087 289.918 16.1732 289.553 16.3556C289.184 16.5399 288.785 16.8321 288.48 17.2891C288.172 17.7523 288 18.325 288 19C288 19.9771 288.624 20.6804 289.32 21.1446C290.02 21.6113 290.959 21.9581 292.007 22.2201C294.119 22.7479 296.959 23 300 23C303.041 23 305.881 22.7479 307.993 22.2201C309.041 21.9581 309.98 21.6113 310.68 21.1446C311.376 20.6804 312 19.9771 312 19C312 18.4477 311.552 18 311 18C310.448 18 310 18.4477 310 19C310 19.023 309.999 19.1946 309.57 19.4805C309.145 19.7637 308.459 20.0419 307.507 20.2799C305.619 20.7521 302.959 21 300 21C297.041 21 294.381 20.7521 292.493 20.2799C291.541 20.0419 290.855 19.7637 290.43 19.4805C290.001 19.1946 290 19.023 290 19C290 18.675 290.078 18.4977 290.145 18.3985C290.215 18.2929 290.316 18.2101 290.447 18.1444C290.582 18.0768 290.73 18.038 290.852 18.0176C290.911 18.0079 290.957 18.0034 290.985 18.0014C290.999 18.0004 291.007 18.0001 291.01 18Z" fill="#1E2126"/>
</g>
<g clip-path="url(#clip5_11383_147386)">
<rect x="72" width="24" height="24" rx="12" fill="#1E2126"/>
<path fill-rule="evenodd" clip-rule="evenodd" d="M85.9995 2.37695C86.1724 2.37695 86.3125 2.51708 86.3125 2.68994V10.9343C86.3125 11.1071 86.1724 11.2473 85.9995 11.2473C85.8267 11.2473 85.6865 11.1071 85.6865 10.9343V2.68994C85.6865 2.51708 85.8267 2.37695 85.9995 2.37695Z" fill="white"/>
<path fill-rule="evenodd" clip-rule="evenodd" d="M81.5116 3.27C81.6713 3.20385 81.8544 3.27968 81.9206 3.43938L85.0757 11.0562C85.1418 11.2159 85.066 11.3989 84.9063 11.4651C84.7466 11.5313 84.5635 11.4554 84.4974 11.2957L81.3423 3.67894C81.2761 3.51924 81.3519 3.33615 81.5116 3.27Z" fill="white"/>
<path fill-rule="evenodd" clip-rule="evenodd" d="M77.7069 5.81237C77.8291 5.69015 78.0273 5.69015 78.1495 5.81237L83.9793 11.6421C84.1015 11.7644 84.1015 11.9625 83.9793 12.0848C83.8571 12.207 83.6589 12.207 83.5367 12.0848L77.7069 6.255C77.5847 6.13277 77.5847 5.9346 77.7069 5.81237Z" fill="white"/>
<path fill-rule="evenodd" clip-rule="evenodd" d="M75.1645 9.61614C75.2307 9.45644 75.4138 9.38061 75.5735 9.44676L83.1903 12.6019C83.3499 12.668 83.4258 12.8511 83.3596 13.0108C83.2935 13.1705 83.1104 13.2463 82.9507 13.1802L75.3339 10.0251C75.1742 9.95892 75.0984 9.77584 75.1645 9.61614Z" fill="white"/>
<path fill-rule="evenodd" clip-rule="evenodd" d="M74.2715 14.105C74.2715 13.9321 74.4116 13.792 74.5845 13.792H82.8288C83.0017 13.792 83.1418 13.9321 83.1418 14.105C83.1418 14.2778 83.0017 14.418 82.8288 14.418H74.5845C74.4116 14.418 74.2715 14.2778 74.2715 14.105Z" fill="white"/>
<path fill-rule="evenodd" clip-rule="evenodd" d="M83.3596 15.1991C83.4258 15.3588 83.3499 15.5419 83.1903 15.6081L75.5735 18.7632C75.4138 18.8293 75.2307 18.7535 75.1645 18.5938C75.0984 18.4341 75.1742 18.251 75.3339 18.1849L82.9507 15.0298C83.1104 14.9636 83.2935 15.0394 83.3596 15.1991Z" fill="white"/>
<path fill-rule="evenodd" clip-rule="evenodd" d="M83.9793 16.1259C84.1015 16.2481 84.1015 16.4462 83.9793 16.5685L78.1495 22.3982C78.0273 22.5205 77.8291 22.5205 77.7069 22.3982C77.5847 22.276 77.5847 22.0778 77.7069 21.9556L83.5367 16.1259C83.6589 16.0036 83.8571 16.0036 83.9793 16.1259Z" fill="white"/>
<path fill-rule="evenodd" clip-rule="evenodd" d="M84.9063 16.7456C85.066 16.8117 85.1418 16.9948 85.0757 17.1545L81.9206 24.7713C81.8544 24.931 81.6713 25.0068 81.5116 24.9407C81.3519 24.8745 81.2761 24.6915 81.3423 24.5318L84.4974 16.915C84.5635 16.7553 84.7466 16.6794 84.9063 16.7456Z" fill="white"/>
<path fill-rule="evenodd" clip-rule="evenodd" d="M85.9995 16.9639C86.1724 16.9639 86.3125 17.104 86.3125 17.2768V25.5212C86.3125 25.694 86.1724 25.8342 85.9995 25.8342C85.8267 25.8342 85.6865 25.694 85.6865 25.5212V17.2768C85.6865 17.104 85.8267 16.9639 85.9995 16.9639Z" fill="white"/>
<path fill-rule="evenodd" clip-rule="evenodd" d="M87.0937 16.7456C87.2534 16.6794 87.4365 16.7553 87.5026 16.915L90.6577 24.5318C90.7239 24.6915 90.648 24.8745 90.4883 24.9407C90.3286 25.0068 90.1456 24.931 90.0794 24.7713L86.9243 17.1545C86.8581 16.9948 86.934 16.8117 87.0937 16.7456Z" fill="white"/>
<path fill-rule="evenodd" clip-rule="evenodd" d="M88.0204 16.1259C88.1426 16.0036 88.3408 16.0036 88.463 16.1259L94.2928 21.9556C94.415 22.0778 94.415 22.276 94.2928 22.3982C94.1705 22.5205 93.9724 22.5205 93.8501 22.3982L88.0204 16.5685C87.8982 16.4462 87.8982 16.2481 88.0204 16.1259Z" fill="white"/>
<path fill-rule="evenodd" clip-rule="evenodd" d="M88.6401 15.1991C88.7063 15.0394 88.8894 14.9636 89.0491 15.0298L96.6658 18.1849C96.8255 18.251 96.9014 18.4341 96.8352 18.5938C96.7691 18.7535 96.586 18.8293 96.4263 18.7632L88.8095 15.6081C88.6498 15.5419 88.574 15.3588 88.6401 15.1991Z" fill="white"/>
<path fill-rule="evenodd" clip-rule="evenodd" d="M88.8574 14.105C88.8574 13.9321 88.9975 13.792 89.1704 13.792H97.4147C97.5876 13.792 97.7277 13.9321 97.7277 14.105C97.7277 14.2778 97.5876 14.418 97.4147 14.418H89.1704C88.9975 14.418 88.8574 14.2778 88.8574 14.105Z" fill="white"/>
<path fill-rule="evenodd" clip-rule="evenodd" d="M96.8352 9.61614C96.9014 9.77584 96.8255 9.95892 96.6658 10.0251L89.0491 13.1802C88.8894 13.2463 88.7063 13.1705 88.6401 13.0108C88.574 12.8511 88.6498 12.668 88.8095 12.6019L96.4263 9.44676C96.586 9.38061 96.7691 9.45644 96.8352 9.61614Z" fill="white"/>
<path fill-rule="evenodd" clip-rule="evenodd" d="M94.2928 5.81237C94.415 5.9346 94.415 6.13277 94.2928 6.255L88.463 12.0848C88.3408 12.207 88.1426 12.207 88.0204 12.0848C87.8982 11.9625 87.8982 11.7644 88.0204 11.6421L93.8501 5.81237C93.9724 5.69015 94.1705 5.69015 94.2928 5.81237Z" fill="white"/>
<path fill-rule="evenodd" clip-rule="evenodd" d="M90.4883 3.27C90.648 3.33615 90.7239 3.51924 90.6577 3.67894L87.5026 11.2957C87.4365 11.4554 87.2534 11.5313 87.0937 11.4651C86.934 11.3989 86.8581 11.2159 86.9243 11.0562L90.0794 3.43938C90.1456 3.27968 90.3286 3.20385 90.4883 3.27Z" fill="white"/>
<path fill-rule="evenodd" clip-rule="evenodd" d="M85.9997 1.85547C86.4606 1.85547 86.8343 2.22914 86.8343 2.69009V6.73507C86.8343 7.19602 86.4606 7.56969 85.9997 7.56969C85.5387 7.56969 85.165 7.19602 85.165 6.73507V2.69009C85.165 2.22914 85.5387 1.85547 85.9997 1.85547Z" fill="white"/>
<path fill-rule="evenodd" clip-rule="evenodd" d="M81.3123 2.78836C81.7382 2.61196 82.2264 2.8142 82.4028 3.24006L84.2161 7.61784C84.3925 8.0437 84.1903 8.53192 83.7644 8.70832C83.3386 8.88471 82.8503 8.68248 82.6739 8.25662L80.8606 3.87884C80.6842 3.45298 80.8865 2.96475 81.3123 2.78836Z" fill="white"/>
<path fill-rule="evenodd" clip-rule="evenodd" d="M77.3382 5.44367C77.6641 5.11773 78.1926 5.11773 78.5185 5.44367L82.2447 9.16985C82.5706 9.49579 82.5706 10.0242 82.2447 10.3502C81.9188 10.6761 81.3903 10.6761 81.0644 10.3502L77.3382 6.62401C77.0123 6.29807 77.0123 5.76961 77.3382 5.44367Z" fill="white"/>
<path fill-rule="evenodd" clip-rule="evenodd" d="M74.6829 9.41678C74.8593 8.99093 75.3476 8.78872 75.7734 8.96513L80.9432 11.1068C81.369 11.2832 81.5712 11.7714 81.3948 12.1973C81.2184 12.6231 80.7302 12.8253 80.3043 12.6489L75.1346 10.5073C74.7087 10.3309 74.5065 9.84263 74.6829 9.41678Z" fill="white"/>
<path fill-rule="evenodd" clip-rule="evenodd" d="M73.75 14.1051C73.75 13.6442 74.1237 13.2705 74.5846 13.2705H80.2925C80.7534 13.2705 81.1271 13.6442 81.1271 14.1051C81.1271 14.5661 80.7534 14.9397 80.2925 14.9397H74.5846C74.1237 14.9397 73.75 14.5661 73.75 14.1051Z" fill="white"/>
<path fill-rule="evenodd" clip-rule="evenodd" d="M81.3948 16.0125C81.5712 16.4383 81.369 16.9266 80.9432 17.103L75.7734 19.2446C75.3476 19.421 74.8593 19.2188 74.6829 18.793C74.5065 18.3671 74.7087 17.8789 75.1346 17.7025L80.3043 15.5608C80.7302 15.3844 81.2184 15.5866 81.3948 16.0125Z" fill="white"/>
<path fill-rule="evenodd" clip-rule="evenodd" d="M82.2447 17.8596C82.5706 18.1856 82.5707 18.714 82.2448 19.04L78.5186 22.7667C78.1927 23.0927 77.6642 23.0927 77.3382 22.7668C77.0123 22.4409 77.0122 21.9124 77.3382 21.5865L81.0643 17.8597C81.3902 17.5338 81.9187 17.5337 82.2447 17.8596Z" fill="white"/>
<path fill-rule="evenodd" clip-rule="evenodd" d="M83.7644 19.5022C84.1903 19.6786 84.3925 20.1668 84.2161 20.5927L82.4028 24.9705C82.2264 25.3963 81.7382 25.5986 81.3123 25.4222C80.8865 25.2458 80.6842 24.7576 80.8606 24.3317L82.6739 19.9539C82.8503 19.5281 83.3386 19.3258 83.7644 19.5022Z" fill="white"/>
<path fill-rule="evenodd" clip-rule="evenodd" d="M85.9997 20.6416C86.4606 20.6416 86.8343 21.0153 86.8343 21.4762V25.5212C86.8343 25.9822 86.4606 26.3558 85.9997 26.3558C85.5387 26.3558 85.165 25.9822 85.165 25.5212V21.4762C85.165 21.0153 85.5387 20.6416 85.9997 20.6416Z" fill="white"/>
<path fill-rule="evenodd" clip-rule="evenodd" d="M88.7927 20.848C89.2186 20.6715 89.7068 20.8737 89.8832 21.2996L91.1395 24.3316C91.3159 24.7575 91.1137 25.2457 90.6879 25.4221C90.262 25.5986 89.7738 25.3964 89.5973 24.9705L88.3411 21.9385C88.1647 21.5126 88.3669 21.0244 88.7927 20.848Z" fill="white"/>
<path fill-rule="evenodd" clip-rule="evenodd" d="M91.6575 19.763C91.9835 19.4371 92.5119 19.4371 92.8379 19.763L94.6618 21.5869C94.9877 21.9129 94.9877 22.4413 94.6618 22.7673C94.3359 23.0932 93.8074 23.0932 93.4815 22.7673L91.6575 20.9433C91.3316 20.6174 91.3316 20.0889 91.6575 19.763Z" fill="white"/>
<path fill-rule="evenodd" clip-rule="evenodd" d="M93.8518 17.3573C94.0282 16.9314 94.5164 16.7292 94.9423 16.9055L96.8652 17.702C97.2911 17.8784 97.4933 18.3666 97.317 18.7925C97.1406 19.2184 96.6523 19.4206 96.2265 19.2442L94.3035 18.4477C93.8777 18.2713 93.6754 17.7831 93.8518 17.3573Z" fill="white"/>
<path fill-rule="evenodd" clip-rule="evenodd" d="M94.6777 14.1051C94.6777 13.6442 95.0514 13.2705 95.5124 13.2705H97.4152C97.8761 13.2705 98.2498 13.6442 98.2498 14.1051C98.2498 14.5661 97.8761 14.9397 97.4152 14.9397H95.5124C95.0514 14.9397 94.6777 14.5661 94.6777 14.1051Z" fill="white"/>
<path fill-rule="evenodd" clip-rule="evenodd" d="M97.317 9.41682C97.4933 9.84269 97.2911 10.3309 96.8652 10.5073L94.9423 11.3038C94.5164 11.4802 94.0282 11.2779 93.8518 10.8521C93.6754 10.4262 93.8777 9.93797 94.3035 9.76158L96.2265 8.96511C96.6523 8.78872 97.1406 8.99096 97.317 9.41682Z" fill="white"/>
<path fill-rule="evenodd" clip-rule="evenodd" d="M94.6618 5.44367C94.9877 5.76961 94.9877 6.29807 94.6618 6.62401L92.8379 8.44794C92.5119 8.77388 91.9835 8.77388 91.6575 8.44794C91.3316 8.122 91.3316 7.59355 91.6575 7.26761L93.4815 5.44367C93.8074 5.11773 94.3359 5.11773 94.6618 5.44367Z" fill="white"/>
<path fill-rule="evenodd" clip-rule="evenodd" d="M90.6879 2.78839C91.1137 2.96482 91.3159 3.45306 91.1395 3.87891L89.8832 6.91097C89.7068 7.33682 89.2186 7.53901 88.7927 7.36257C88.3669 7.18614 88.1647 6.69789 88.3411 6.27205L89.5973 3.23999C89.7738 2.81414 90.262 2.61195 90.6879 2.78839Z" fill="white"/>
</g>
<g clip-path="url(#clip6_11383_147386)">
<path fill-rule="evenodd" clip-rule="evenodd" d="M7.4 3H7.35719H7.35719C6.27341 2.99999 5.39925 2.99998 4.69138 3.05782C3.96253 3.11737 3.32234 3.24318 2.73005 3.54497C1.78924 4.02434 1.02433 4.78924 0.544968 5.73005C0.24318 6.32234 0.117368 6.96253 0.0578183 7.69138C-1.77381e-05 8.39926 -9.75112e-06 9.27341 2.62457e-07 10.3572V10.4V13.6V13.6428C-9.75112e-06 14.7266 -1.77381e-05 15.6007 0.0578183 16.3086C0.117368 17.0375 0.24318 17.6777 0.544968 18.27C1.02433 19.2108 1.78924 19.9757 2.73005 20.455C3.32234 20.7568 3.96253 20.8826 4.69138 20.9422C5.39923 21 6.27334 21 7.35706 21H7.35717H7.4H16.6H16.6428H16.6429C17.7267 21 18.6008 21 19.3086 20.9422C20.0375 20.8826 20.6777 20.7568 21.27 20.455C22.2108 19.9757 22.9757 19.2108 23.455 18.27C23.7568 17.6777 23.8826 17.0375 23.9422 16.3086C24 15.6008 24 14.7267 24 13.6429V13.6428V13.6V10.4V10.3572V10.3571C24 9.27334 24 8.39923 23.9422 7.69138C23.8826 6.96253 23.7568 6.32234 23.455 5.73005C22.9757 4.78924 22.2108 4.02434 21.27 3.54497C20.6777 3.24318 20.0375 3.11737 19.3086 3.05782C18.6007 2.99998 17.7266 2.99999 16.6428 3H16.6H7.4ZM3.63803 5.32698C3.90138 5.19279 4.24907 5.10062 4.85424 5.05118C5.47108 5.00078 6.26339 5 7.4 5H16.6C17.7366 5 18.5289 5.00078 19.1458 5.05118C19.7509 5.10062 20.0986 5.19279 20.362 5.32698C20.9265 5.6146 21.3854 6.07354 21.673 6.63803C21.8072 6.90138 21.8994 7.24907 21.9488 7.85424C21.9992 8.47108 22 9.2634 22 10.4V13.6C22 14.7366 21.9992 15.5289 21.9488 16.1458C21.8994 16.7509 21.8072 17.0986 21.673 17.362C21.3854 17.9265 20.9265 18.3854 20.362 18.673C20.0986 18.8072 19.7509 18.8994 19.1458 18.9488C18.5289 18.9992 17.7366 19 16.6 19H7.4C6.26339 19 5.47108 18.9992 4.85424 18.9488C4.24907 18.8994 3.90138 18.8072 3.63803 18.673C3.07354 18.3854 2.6146 17.9265 2.32698 17.362C2.19279 17.0986 2.10062 16.7509 2.05118 16.1458C2.00078 15.5289 2 14.7366 2 13.6V10.4C2 9.26339 2.00078 8.47108 2.05118 7.85424C2.10062 7.24907 2.19279 6.90138 2.32698 6.63803C2.6146 6.07354 3.07354 5.6146 3.63803 5.32698ZM5.29201 15.9742C4.90148 15.5837 4.90148 14.9505 5.29201 14.56L7.8519 12.0001L5.29201 9.44019C4.90148 9.04966 4.90148 8.4165 5.29201 8.02597C5.68253 7.63545 6.3157 7.63545 6.70622 8.02598L9.97322 11.293C10.3637 11.6835 10.3637 12.3167 9.97322 12.7072L6.70622 15.9742C6.3157 16.3647 5.68253 16.3647 5.29201 15.9742ZM11 15C11 14.4477 11.4477 14 12 14L18 14C18.5523 14 19 14.4477 19 15C19 15.5523 18.5523 16 18 16L12 16C11.4477 16 11 15.5523 11 15Z" fill="#1E2126"/>
</g>
<g clip-path="url(#clip7_11383_147386)">
<path fill-rule="evenodd" clip-rule="evenodd" d="M367.4 3H367.357H367.357C366.273 2.99999 365.399 2.99998 364.691 3.05782C363.963 3.11737 363.322 3.24318 362.73 3.54497C361.789 4.02434 361.024 4.78924 360.545 5.73005C360.243 6.32234 360.117 6.96253 360.058 7.69138C360 8.39926 360 9.27341 360 10.3572V10.4V13.6V13.6428C360 14.7266 360 15.6007 360.058 16.3086C360.117 17.0375 360.243 17.6777 360.545 18.27C361.024 19.2108 361.789 19.9757 362.73 20.455C363.322 20.7568 363.963 20.8826 364.691 20.9422C365.399 21 366.273 21 367.357 21H367.357H367.4H376.6H376.643H376.643C377.727 21 378.601 21 379.309 20.9422C380.037 20.8826 380.678 20.7568 381.27 20.455C382.211 19.9757 382.976 19.2108 383.455 18.27C383.757 17.6777 383.883 17.0375 383.942 16.3086C384 15.6008 384 14.7267 384 13.6429V13.6428V13.6V10.4V10.3572V10.3571C384 9.27334 384 8.39923 383.942 7.69138C383.883 6.96253 383.757 6.32234 383.455 5.73005C382.976 4.78924 382.211 4.02434 381.27 3.54497C380.678 3.24318 380.037 3.11737 379.309 3.05782C378.601 2.99998 377.727 2.99999 376.643 3H376.6H367.4ZM363.638 5.32698C363.901 5.19279 364.249 5.10062 364.854 5.05118C365.471 5.00078 366.263 5 367.4 5H376.6C377.737 5 378.529 5.00078 379.146 5.05118C379.751 5.10062 380.099 5.19279 380.362 5.32698C380.926 5.6146 381.385 6.07354 381.673 6.63803C381.807 6.90138 381.899 7.24907 381.949 7.85424C381.999 8.47108 382 9.2634 382 10.4V13.6C382 14.7366 381.999 15.5289 381.949 16.1458C381.899 16.7509 381.807 17.0986 381.673 17.362C381.385 17.9265 380.926 18.3854 380.362 18.673C380.099 18.8072 379.751 18.8994 379.146 18.9488C378.529 18.9992 377.737 19 376.6 19H367.4C366.263 19 365.471 18.9992 364.854 18.9488C364.249 18.8994 363.901 18.8072 363.638 18.673C363.074 18.3854 362.615 17.9265 362.327 17.362C362.193 17.0986 362.101 16.7509 362.051 16.1458C362.001 15.5289 362 14.7366 362 13.6V10.4C362 9.26339 362.001 8.47108 362.051 7.85424C362.101 7.24907 362.193 6.90138 362.327 6.63803C362.615 6.07354 363.074 5.6146 363.638 5.32698ZM365.292 15.9742C364.901 15.5837 364.901 14.9505 365.292 14.56L367.852 12.0001L365.292 9.44019C364.901 9.04966 364.901 8.4165 365.292 8.02597C365.683 7.63545 366.316 7.63545 366.706 8.02598L369.973 11.293C370.364 11.6835 370.364 12.3167 369.973 12.7072L366.706 15.9742C366.316 16.3647 365.683 16.3647 365.292 15.9742ZM371 15C371 14.4477 371.448 14 372 14L378 14C378.552 14 379 14.4477 379 15C379 15.5523 378.552 16 378 16L372 16C371.448 16 371 15.5523 371 15Z" fill="#0055D9"/>
</g>
<defs>
<clipPath id="clip0_11383_147386">
<rect width="24" height="24" fill="white" transform="translate(504)"/>
</clipPath>
<clipPath id="clip1_11383_147386">
<rect width="24" height="24" fill="white" transform="translate(648)"/>
</clipPath>
<clipPath id="clip2_11383_147386">
<rect x="432" width="24" height="24" rx="12" fill="white"/>
</clipPath>
<clipPath id="clip3_11383_147386">
<rect width="24" height="24" fill="white" transform="translate(144)"/>
</clipPath>
<clipPath id="clip4_11383_147386">
<rect width="24" height="24" fill="white" transform="translate(288)"/>
</clipPath>
<clipPath id="clip5_11383_147386">
<rect x="72" width="24" height="24" rx="12" fill="white"/>
</clipPath>
<clipPath id="clip6_11383_147386">
<rect width="24" height="24" fill="white"/>
</clipPath>
<clipPath id="clip7_11383_147386">
<rect width="24" height="24" fill="white" transform="translate(360)"/>
</clipPath>
</defs>
</svg>
