<svg width="24" height="24" viewBox="0 0 24 24" fill="none" xmlns="http://www.w3.org/2000/svg"><path fill-rule="evenodd" clip-rule="evenodd" d="M10.4 3H10.3572H10.3572C9.27341 2.99999 8.39925 2.99998 7.69138 3.05782C6.96253 3.11737 6.32234 3.24318 5.73005 3.54497C4.78924 4.02434 4.02434 4.78924 3.54497 5.73005C3.24318 6.32234 3.11737 6.96253 3.05782 7.69138C2.99998 8.39925 2.99999 9.27341 3 10.3572V10.3572V10.4V16C3 18.7614 5.23858 21 8 21H8.47376L8.53597 21C9.45373 21 9.99101 21 10.5142 20.9449C12.3095 20.7556 14.0201 20.0839 15.4645 19.0009C15.8854 18.6854 16.2791 18.3198 16.9516 17.6953L16.9517 17.6952L16.9973 17.6529L17.0479 17.6058L17.048 17.6058C17.7921 16.9149 18.2276 16.5105 18.6032 16.0709C19.8934 14.5606 20.7047 12.7002 20.9335 10.7271C21.0001 10.1527 21 9.55842 21 8.54301V8.54291L21 8.47376V8C21 5.23858 18.7614 3 16 3H10.4ZM18.5132 12.3234C18.1876 13.2136 17.7047 14.0435 17.0825 14.7718C16.7911 15.113 16.4455 15.4359 15.6364 16.1873C14.9053 16.8661 14.5915 17.1558 14.2648 17.4007C13.6766 17.8418 13.0331 18.1976 12.3537 18.4606C12.7651 17.7341 13 16.8945 13 16C13 14.3431 14.3431 13 16 13C16.9162 13 17.7748 12.7536 18.5132 12.3234ZM8 19C9.65686 19 11 17.6569 11 16C11 13.2386 13.2386 11 16 11C17.6569 11 19 9.65686 19 8C19 6.34315 17.6569 5 16 5H10.4C9.2634 5 8.47108 5.00078 7.85424 5.05118C7.24907 5.10062 6.90138 5.19279 6.63803 5.32698C6.07354 5.6146 5.6146 6.07354 5.32698 6.63803C5.19279 6.90138 5.10062 7.24907 5.05118 7.85424C5.00078 8.47108 5 9.26339 5 10.4V16C5 17.6569 6.34315 19 8 19Z" fill="#0069FF" fill-opacity="0.96"></path></svg>
