<svg xmlns="http://www.w3.org/2000/svg" width="24" height="24" fill="none"><g clip-path="url(#adsfdd)"><path d="M17.7071 10.7071c.3905-.3905.3905-1.0237 0-1.4142-.3905-.3905-1.0237-.3905-1.4142 0l1.4142 1.4142ZM12 15l-.7071.7071c.3905.3905 1.0237.3905 1.4142 0L12 15ZM7.7071 9.2929c-.3905-.3905-1.0237-.3905-1.4142 0-.3905.3905-.3905 1.0237 0 1.4142L7.707 9.2929Zm8.5858 0-5 5 1.4142 1.4142 5-5-1.4142-1.4142Zm-3.5858 5-5-5L6.293 10.707l5 5 1.4142-1.4142Z" fill="#fff"></path></g><defs><clipPath id="adsfdd"><path fill="#fff" d="M0 0h24v24H0z"></path></clipPath></defs></svg>
