<svg width="16" height="16" viewBox="0 0 16 16" fill="none" xmlns="http://www.w3.org/2000/svg"><path fill-rule="evenodd" clip-rule="evenodd" d="M10.2 2.5H9.8C8.93517 2.5 8.37676 2.50117 7.95175 2.53589C7.54426 2.56918 7.39318 2.6257 7.31901 2.66349C7.03677 2.8073 6.8073 3.03677 6.66349 3.31901C6.6257 3.39318 6.56918 3.54426 6.53589 3.95175C6.51327 4.22863 6.50489 4.56213 6.5018 5.00008C7.98315 5.00125 8.75986 5.02019 9.36197 5.32698C9.92646 5.6146 10.3854 6.07354 10.673 6.63803C10.9798 7.24014 10.9988 8.01685 10.9999 9.4982C11.4379 9.49511 11.7714 9.48673 12.0482 9.46411C12.4557 9.43082 12.6068 9.3743 12.681 9.33651C12.9632 9.1927 13.1927 8.96323 13.3365 8.68099C13.3743 8.60682 13.4308 8.45574 13.4641 8.04825C13.4988 7.62324 13.5 7.06483 13.5 6.2V5.8C13.5 4.93517 13.4988 4.37676 13.4641 3.95175C13.4308 3.54426 13.3743 3.39318 13.3365 3.31902C13.1927 3.03677 12.9632 2.8073 12.681 2.66349C12.6068 2.6257 12.4557 2.56919 12.0482 2.53589C11.6232 2.50117 11.0648 2.5 10.2 2.5ZM10.9983 10.9983C12.1643 10.9903 12.831 10.9436 13.362 10.673C13.9265 10.3854 14.3854 9.92646 14.673 9.36197C15 8.72024 15 7.88016 15 6.2V5.8C15 4.11984 15 3.27976 14.673 2.63803C14.3854 2.07354 13.9265 1.6146 13.362 1.32698C12.7202 1 11.8802 1 10.2 1H9.8C8.11984 1 7.27976 1 6.63803 1.32698C6.07354 1.6146 5.6146 2.07354 5.32698 2.63803C5.05645 3.16898 5.00974 3.83571 5.00168 5.00168C3.83571 5.00974 3.16898 5.05645 2.63803 5.32698C2.07354 5.6146 1.6146 6.07354 1.32698 6.63803C1 7.27976 1 8.11984 1 9.8V10.2C0.999999 11.8802 0.999999 12.7202 1.32698 13.362C1.6146 13.9265 2.07354 14.3854 2.63803 14.673C3.27976 15 4.11984 15 5.8 15H6.2C7.88016 15 8.72024 15 9.36197 14.673C9.92646 14.3854 10.3854 13.9265 10.673 13.362C10.9436 12.831 10.9903 12.1643 10.9983 10.9983ZM5.8 6.5H6.2C7.06483 6.5 7.62324 6.50117 8.04825 6.53589C8.45574 6.56919 8.60682 6.6257 8.68099 6.66349C8.96323 6.8073 9.1927 7.03677 9.33651 7.31902C9.3743 7.39318 9.43082 7.54426 9.46411 7.95175C9.49883 8.37676 9.5 8.93517 9.5 9.8V10.2C9.5 11.0648 9.49883 11.6232 9.46411 12.0482C9.43082 12.4557 9.3743 12.6068 9.33651 12.681C9.1927 12.9632 8.96323 13.1927 8.68099 13.3365C8.60682 13.3743 8.45574 13.4308 8.04825 13.4641C7.62324 13.4988 7.06483 13.5 6.2 13.5H5.8C4.93517 13.5 4.37676 13.4988 3.95175 13.4641C3.54426 13.4308 3.39318 13.3743 3.31901 13.3365C3.03677 13.1927 2.8073 12.9632 2.66349 12.681C2.6257 12.6068 2.56918 12.4557 2.53589 12.0482C2.50117 11.6232 2.5 11.0648 2.5 10.2V9.8C2.5 8.93517 2.50117 8.37676 2.53589 7.95175C2.56918 7.54426 2.6257 7.39318 2.66349 7.31901C2.8073 7.03677 3.03677 6.8073 3.31901 6.66349C3.39318 6.6257 3.54426 6.56918 3.95175 6.53589C4.37676 6.50117 4.93517 6.5 5.8 6.5Z" fill="#8f9093" fill-opacity="0.8"></path></svg>
