<svg width="16" height="16" viewBox="0 0 16 16" fill="none" xmlns="http://www.w3.org/2000/svg">
<path fill-rule="evenodd" clip-rule="evenodd" d="M8.53529 1.33338H10.6686V2.66671C10.6686 3.77128 11.5641 4.66671 12.6686 4.66671H14.002V8.80004C14.002 9.3711 14.0014 9.75929 13.9769 10.0594C13.953 10.3516 13.9098 10.5011 13.8566 10.6054C13.7288 10.8562 13.5248 11.0602 13.2739 11.1881C13.1697 11.2412 13.0202 11.2845 12.7279 11.3083C12.4279 11.3329 12.0397 11.3334 11.4686 11.3334H8.53529C7.96423 11.3334 7.57604 11.3329 7.27598 11.3083C6.9837 11.2845 6.83423 11.2412 6.72997 11.1881C6.47908 11.0602 6.27511 10.8562 6.14728 10.6054C6.09415 10.5011 6.05087 10.3516 6.02699 10.0594C6.00247 9.75929 6.00195 9.3711 6.00195 8.80004V3.86671C6.00195 3.29565 6.00247 2.90746 6.02699 2.6074C6.05087 2.31512 6.09415 2.16565 6.14728 2.06139C6.27511 1.81051 6.47908 1.60653 6.72997 1.4787C6.83423 1.42557 6.9837 1.38229 7.27598 1.35841C7.57604 1.33389 7.96424 1.33338 8.53529 1.33338ZM10.7444 2.06051e-05C11.1677 -0.000180859 11.4876 -0.000333089 11.796 0.0737222C12.0681 0.139047 12.3283 0.246792 12.5669 0.393002C12.8373 0.558753 13.0634 0.785038 13.3626 1.08452L13.4106 1.13256L14.2028 1.92471L14.2508 1.97273L14.2508 1.97274L14.2508 1.97276C14.5503 2.27194 14.7766 2.498 14.9423 2.76847C15.0885 3.00707 15.1963 3.26718 15.2616 3.53928C15.3357 3.84774 15.3355 4.16759 15.3353 4.59091V4.59093L15.3353 4.65886V8.80004V8.82759V8.82767C15.3353 9.36427 15.3353 9.80715 15.3058 10.1679C15.2752 10.5427 15.2095 10.8871 15.0446 11.2107C14.789 11.7124 14.381 12.1204 13.8793 12.3761C13.5557 12.5409 13.2112 12.6066 12.8365 12.6372C12.4757 12.6667 12.0328 12.6667 11.4962 12.6667H11.4962H11.4686H8.53529H8.50774H8.50771C7.97108 12.6667 7.52819 12.6667 7.1674 12.6372C6.79267 12.6066 6.4482 12.5409 6.12465 12.3761C5.62288 12.1204 5.21493 11.7124 4.95927 11.2107C4.79441 10.8871 4.7287 10.5427 4.69808 10.1679C4.66861 9.80713 4.66861 9.36422 4.66862 8.82757V8.80004V3.86671V3.83917V3.83917C4.66861 3.30252 4.66861 2.85962 4.69808 2.49882C4.7287 2.12409 4.79441 1.77962 4.95927 1.45607C5.21493 0.954302 5.62288 0.546354 6.12465 0.290691C6.4482 0.125831 6.79267 0.0601212 7.1674 0.0295045C7.5282 2.61483e-05 7.97111 3.31817e-05 8.50776 4.20031e-05H8.53529H10.6765L10.7444 2.06051e-05ZM2.0013 6.00004C2.0013 5.26366 2.59826 4.66671 3.33464 4.66671V3.33338C1.86188 3.33338 0.667969 4.52728 0.667969 6.00004V12.1334V12.1609V12.1609C0.66796 12.6976 0.667954 13.1405 0.697432 13.5013C0.728049 13.876 0.793758 14.2205 0.958619 14.544C1.21428 15.0458 1.62223 15.4537 2.12399 15.7094C2.44755 15.8743 2.79202 15.94 3.16675 15.9706C3.52753 16.0001 3.97041 16 4.50701 16H4.50709H4.53464H9.33464C10.4392 16 11.3346 15.1046 11.3346 14H10.0013C10.0013 14.3682 9.70283 14.6667 9.33464 14.6667H4.53464C3.96358 14.6667 3.57539 14.6662 3.27533 14.6417C2.98305 14.6178 2.83358 14.5745 2.72932 14.5214C2.47843 14.3936 2.27446 14.1896 2.14663 13.9387C2.0935 13.8344 2.05022 13.685 2.02634 13.3927C2.00182 13.0926 2.0013 12.7044 2.0013 12.1334V6.00004Z" fill="white"/>
</svg>
