<svg width="24" height="24" viewBox="0 0 24 24" fill="none" xmlns="http://www.w3.org/2000/svg"><path fill-rule="evenodd" clip-rule="evenodd" d="M7.91426 16.6349L7.89369 16.7871L7.87237 16.9449L7.86074 17.0309L7.77289 17.681C7.68793 18.3097 7.64545 18.6241 7.74885 18.7806C7.83849 18.9164 7.98856 19 8.15116 19.0049C8.3387 19.0105 8.58373 18.809 9.07377 18.4061L9.58046 17.9894L9.64752 17.9343L9.7705 17.8332L11.1144 16.7282C11.4425 16.4585 11.6065 16.3236 11.7901 16.2276C11.953 16.1424 12.1269 16.0801 12.3067 16.0425C12.5095 16 12.7219 16 13.1467 16H15.2001C16.8802 16 17.7203 16 18.362 15.673C18.9265 15.3854 19.3855 14.9265 19.6731 14.362C20.0001 13.7202 20.0001 12.8802 20.0001 11.2V9.80001C20.0001 8.11985 20.0001 7.27977 19.6731 6.63803C19.3855 6.07355 18.9265 5.61461 18.362 5.32699C17.7203 5.00001 16.8802 5.00001 15.2001 5.00001H8.80005C7.1199 5.00001 6.27982 5.00001 5.63808 5.32699C5.0736 5.61461 4.61465 6.07355 4.32703 6.63803C4.00005 7.27977 4.00005 8.11985 4.00005 9.80001V12.6406C4.00005 12.9744 4.00005 13.1412 4.01332 13.2818C4.14864 14.7159 5.28413 15.8514 6.71823 15.9867C6.85883 16 7.02569 16 7.35941 16C7.42213 16 7.45349 16 7.47891 16.0026C7.74013 16.0294 7.93614 16.2537 7.92768 16.5161C7.92686 16.5416 7.92266 16.5727 7.91426 16.6349ZM7.36836 17.2089C7.36274 17.2128 7.36314 17.2122 7.36908 17.2084L7.36836 17.2089ZM15.2001 3.00001H8.80005L8.72788 3L8.72787 3C7.94969 2.99996 7.24943 2.99992 6.6668 3.04752C6.04286 3.0985 5.3799 3.21388 4.7301 3.54497C3.78929 4.02434 3.02439 4.78924 2.54502 5.73005C2.21393 6.37986 2.09855 7.04281 2.04757 7.66675C1.99997 8.24938 2.00001 8.94964 2.00005 9.72782L2.00005 9.72783L2.00005 9.80001V12.6406L2.00003 12.7076C1.99987 12.9725 1.99971 13.2318 2.02216 13.4697C2.22203 15.5879 3.73102 17.3152 5.73536 17.8378C5.71593 18.0001 5.69948 18.1645 5.69245 18.3139L5.69214 18.3203C5.68198 18.5353 5.64911 19.2304 6.07994 19.8828C6.52816 20.5615 7.27852 20.9797 8.0915 21.004C8.87295 21.0273 9.44683 20.6338 9.62437 20.512L9.62969 20.5084C9.85021 20.3572 10.0955 20.1553 10.302 19.9854L10.344 19.9509L12.3846 18.2731C12.5604 18.1285 12.6478 18.0571 12.7133 18.0076L12.7181 18.0039L12.7241 18.0037C12.8062 18.0004 12.919 18 13.1467 18H15.2001L15.2722 18C16.0504 18.0001 16.7507 18.0001 17.3333 17.9525C17.9572 17.9015 18.6202 17.7861 19.27 17.455C20.2108 16.9757 20.9757 16.2108 21.4551 15.27C21.7862 14.6202 21.9016 13.9572 21.9525 13.3333C22.0001 12.7506 22.0001 12.0504 22.0001 11.2722V11.2722V11.2722V11.2721L22.0001 11.2V9.80001L22.0001 9.72787V9.72784V9.72781V9.72778C22.0001 8.94962 22.0001 8.24937 21.9525 7.66675C21.9016 7.04281 21.7862 6.37986 21.4551 5.73005C20.9757 4.78924 20.2108 4.02434 19.27 3.54497C18.6202 3.21388 17.9572 3.0985 17.3333 3.04752C16.7507 2.99992 16.0504 2.99996 15.2722 3L15.2722 3L15.2001 3.00001ZM7.75 12.0001C8.44036 12.0001 9 11.4404 9 10.7501C9 10.0597 8.44036 9.50006 7.75 9.50006C7.05964 9.50006 6.5 10.0597 6.5 10.7501C6.5 11.4404 7.05964 12.0001 7.75 12.0001ZM13.5 10.7501C13.5 11.4404 12.9404 12.0001 12.25 12.0001C11.5596 12.0001 11 11.4404 11 10.7501C11 10.0597 11.5596 9.50006 12.25 9.50006C12.9404 9.50006 13.5 10.0597 13.5 10.7501ZM16.75 12.0001C17.4404 12.0001 18 11.4404 18 10.7501C18 10.0597 17.4404 9.50006 16.75 9.50006C16.0596 9.50006 15.5 10.0597 15.5 10.7501C15.5 11.4404 16.0596 12.0001 16.75 12.0001Z" fill="#1DD000"></path></svg>
