<svg width="24" height="24" viewBox="0 0 24 24" fill="none" xmlns="http://www.w3.org/2000/svg"><path fill-rule="evenodd" clip-rule="evenodd" d="M10.3956 3.33291C11.417 2.88642 12.5784 2.88643 13.5999 3.33291C14.2847 3.63229 14.8025 4.18562 15.2833 4.84238C15.7595 5.49289 16.288 6.37343 16.9445 7.46724L16.9445 7.46731L16.9708 7.51104L19.794 12.215L19.8207 12.2593L19.8207 12.2594C20.5122 13.4115 21.0672 14.3361 21.4328 15.0948C21.8003 15.8575 22.0549 16.6033 21.9834 17.3706C21.8774 18.5088 21.2896 19.5472 20.3682 20.2238C19.747 20.68 18.9766 20.8455 18.1336 20.9228C17.2948 20.9998 16.2164 20.9998 14.8726 20.9997H14.821H9.17448H9.12288C7.77904 20.9998 6.70062 20.9998 5.8619 20.9228C5.01887 20.8455 4.2484 20.68 3.62723 20.2238C2.70588 19.5472 2.11802 18.5088 2.01204 17.3706C1.94059 16.6032 2.19517 15.8575 2.56269 15.0948C2.92832 14.3361 3.48329 13.4115 4.17485 12.2593L4.17487 12.2592L4.20144 12.215L7.0247 7.51103L7.05091 7.46735C7.70742 6.37349 8.23593 5.49291 8.7122 4.84237C9.19303 4.18562 9.71076 3.63228 10.3956 3.33291ZM12.7988 5.16548C12.2881 4.94224 11.7074 4.94224 11.1967 5.16548C11.0038 5.24978 10.7433 5.45374 10.3259 6.02383C9.91033 6.5915 9.4284 7.39253 8.73954 8.54026L5.91628 13.2442C5.19202 14.4509 4.68539 15.297 4.36439 15.9631C4.04061 16.635 3.98372 16.9735 4.00343 17.1852C4.05642 17.7542 4.35035 18.2735 4.81102 18.6118C4.98233 18.7376 5.30191 18.863 6.04463 18.9312C6.78095 18.9987 7.7671 18.9997 9.17448 18.9997H14.821C16.2284 18.9997 17.2145 18.9987 17.9508 18.9312C18.6935 18.863 19.0131 18.7376 19.1844 18.6118C19.6451 18.2735 19.939 17.7543 19.992 17.1852C20.0117 16.9735 19.9548 16.635 19.6311 15.9631C19.3101 15.297 18.8034 14.4509 18.0792 13.2442L15.2559 8.54027C14.5671 7.39253 14.0851 6.59151 13.6695 6.02383C13.2522 5.45374 12.9917 5.24978 12.7988 5.16548ZM13.5 16.0002C13.5 16.8286 12.8284 17.5002 12 17.5002C11.1716 17.5002 10.5 16.8286 10.5 16.0002C10.5 15.1718 11.1716 14.5002 12 14.5002C12.8284 14.5002 13.5 15.1718 13.5 16.0002ZM12.0042 8.00021C11.295 8.00021 10.7358 8.60404 10.7902 9.31124L11.003 12.0769C11.043 12.5973 11.4765 12.9994 11.9985 13.0002C12.5204 13.001 12.9552 12.6002 12.9968 12.0799L13.218 9.31493C13.2747 8.60643 12.715 8.00021 12.0042 8.00021Z" fill="#FF8C5F"></path></svg>
